<svg width="120" height="120" viewBox="0 0 120 120" fill="none" xmlns="http://www.w3.org/2000/svg">
<path d="M110.558 27.7562C101.582 13.6965 87.1595 4.04669 70.8171 0.98573C67.2374 0.311281 63.6057 0 60.0259 0C26.8742 0 0 26.8223 0 59.9741C0 93.1258 26.8223 120 59.9741 120C93.1258 120 120 93.1777 120 60.0259C120 48.6122 116.732 37.406 110.558 27.7562Z" fill="#FFC107"/>
<path d="M41.576 59.224C42.6853 59.7787 43.528 60.504 44.104 61.4C44.7013 62.296 45 63.3307 45 64.504C45 65.8907 44.6053 67.1067 43.816 68.152C43.0267 69.176 41.9173 69.976 40.488 70.552C39.0587 71.1067 37.4053 71.384 35.528 71.384C33.6507 71.384 31.9973 71.1067 30.568 70.552C29.16 69.976 28.0613 69.176 27.272 68.152C26.504 67.1067 26.12 65.8907 26.12 64.504C26.12 63.3307 26.408 62.296 26.984 61.4C27.5813 60.504 28.424 59.7787 29.512 59.224C28.68 58.712 28.04 58.072 27.592 57.304C27.144 56.5147 26.92 55.6187 26.92 54.616C26.92 53.3147 27.2827 52.184 28.008 51.224C28.7333 50.264 29.7467 49.528 31.048 49.016C32.3493 48.4827 33.8427 48.216 35.528 48.216C37.2347 48.216 38.7387 48.4827 40.04 49.016C41.3627 49.528 42.3867 50.264 43.112 51.224C43.8373 52.184 44.2 53.3147 44.2 54.616C44.2 55.6187 43.976 56.5147 43.528 57.304C43.08 58.072 42.4293 58.712 41.576 59.224ZM35.528 52.024C34.4827 52.024 33.64 52.28 33 52.792C32.3813 53.2827 32.072 53.9653 32.072 54.84C32.072 55.6933 32.3813 56.3653 33 56.856C33.6187 57.3467 34.4613 57.592 35.528 57.592C36.5947 57.592 37.448 57.3467 38.088 56.856C38.728 56.3653 39.048 55.6933 39.048 54.84C39.048 53.9653 38.728 53.2827 38.088 52.792C37.448 52.28 36.5947 52.024 35.528 52.024ZM35.528 67.576C36.8293 67.576 37.8533 67.288 38.6 66.712C39.368 66.1147 39.752 65.3253 39.752 64.344C39.752 63.3627 39.368 62.584 38.6 62.008C37.8533 61.432 36.8293 61.144 35.528 61.144C34.248 61.144 33.2347 61.432 32.488 62.008C31.7413 62.584 31.368 63.3627 31.368 64.344C31.368 65.3467 31.7413 66.136 32.488 66.712C33.2347 67.288 34.248 67.576 35.528 67.576ZM58.157 56.952C59.5863 56.952 60.8877 57.24 62.061 57.816C63.2343 58.392 64.1623 59.2133 64.845 60.28C65.5277 61.3253 65.869 62.5413 65.869 63.928C65.869 65.4213 65.4957 66.7333 64.749 67.864C64.0023 68.9947 62.9783 69.8693 61.677 70.488C60.397 71.0853 58.9677 71.384 57.389 71.384C54.253 71.384 51.7997 70.424 50.029 68.504C48.2583 66.584 47.373 63.8427 47.373 60.28C47.373 57.7413 47.853 55.5653 48.813 53.752C49.773 51.9387 51.1063 50.5627 52.813 49.624C54.541 48.6853 56.5357 48.216 58.797 48.216C59.9917 48.216 61.133 48.3547 62.221 48.632C63.3303 48.888 64.269 49.2613 65.037 49.752L63.117 53.56C62.0077 52.8133 60.6103 52.44 58.925 52.44C57.0263 52.44 55.5223 52.9947 54.413 54.104C53.3037 55.2133 52.7063 56.824 52.621 58.936C53.9437 57.6133 55.789 56.952 58.157 56.952ZM57.101 67.512C58.2103 67.512 59.1063 67.2133 59.789 66.616C60.493 66.0187 60.845 65.208 60.845 64.184C60.845 63.16 60.493 62.3493 59.789 61.752C59.1063 61.1333 58.189 60.824 57.037 60.824C55.9063 60.824 54.9783 61.144 54.253 61.784C53.5277 62.4027 53.165 63.2027 53.165 64.184C53.165 65.1653 53.517 65.9653 54.221 66.584C54.925 67.2027 55.885 67.512 57.101 67.512ZM72.307 60.696C70.6643 60.696 69.3203 60.1413 68.275 59.032C67.251 57.9013 66.739 56.3973 66.739 54.52C66.739 52.6427 67.251 51.1493 68.275 50.04C69.3203 48.9093 70.6643 48.344 72.307 48.344C73.9497 48.344 75.283 48.9093 76.307 50.04C77.331 51.1493 77.843 52.6427 77.843 54.52C77.843 56.3973 77.331 57.9013 76.307 59.032C75.283 60.1413 73.9497 60.696 72.307 60.696ZM85.651 48.6H89.459L74.163 71H70.355L85.651 48.6ZM72.307 58.072C73.0323 58.072 73.5977 57.7733 74.003 57.176C74.4297 56.5787 74.643 55.6933 74.643 54.52C74.643 53.3467 74.4297 52.4613 74.003 51.864C73.5977 51.2667 73.0323 50.968 72.307 50.968C71.603 50.968 71.0377 51.2773 70.611 51.896C70.1843 52.4933 69.971 53.368 69.971 54.52C69.971 55.672 70.1843 56.5573 70.611 57.176C71.0377 57.7733 71.603 58.072 72.307 58.072ZM87.507 71.256C86.4403 71.256 85.4803 71.0107 84.627 70.52C83.795 70.008 83.1443 69.2827 82.675 68.344C82.2057 67.4053 81.971 66.3173 81.971 65.08C81.971 63.8427 82.2057 62.7547 82.675 61.816C83.1443 60.8773 83.795 60.1627 84.627 59.672C85.4803 59.16 86.4403 58.904 87.507 58.904C89.1497 58.904 90.483 59.4693 91.507 60.6C92.5523 61.7093 93.075 63.2027 93.075 65.08C93.075 66.9573 92.5523 68.4613 91.507 69.592C90.483 70.7013 89.1497 71.256 87.507 71.256ZM87.507 68.632C88.2323 68.632 88.7977 68.3333 89.203 67.736C89.6297 67.1173 89.843 66.232 89.843 65.08C89.843 63.928 89.6297 63.0533 89.203 62.456C88.7977 61.8373 88.2323 61.528 87.507 61.528C86.803 61.528 86.2377 61.8267 85.811 62.424C85.3843 63.0213 85.171 63.9067 85.171 65.08C85.171 66.2533 85.3843 67.1387 85.811 67.736C86.2377 68.3333 86.803 68.632 87.507 68.632Z" fill="#212B36"/>
</svg>
