<svg width="496" height="296" viewBox="0 0 496 296" fill="none" xmlns="http://www.w3.org/2000/svg">
<circle cx="88" cy="96" r="88" fill="#FFC107"/>
<g clip-path="url(#clip0)">
<path d="M53.0605 58.5004V53.1677C54.2012 53.3601 55.2769 53.8282 56.1965 54.5312C56.3798 54.6569 56.5949 54.7251 56.8176 54.7281C57.5312 54.7281 58.113 54.1539 58.1205 53.4404C58.122 53.1344 58.0023 52.8405 57.7872 52.6223C56.4586 51.4845 54.7921 50.8134 53.0453 50.7134V48.9258C53.0453 48.4152 52.6318 48.0016 52.1212 48.0016C52.1106 48.0001 52.1 48.0001 52.0894 48.0001C51.5712 47.9925 51.144 48.4061 51.1364 48.9258V50.6528C47.7277 50.8952 45.4098 53.0011 45.4098 55.8037C45.4098 59.2427 48.3337 60.1972 51.1364 60.9547V67.0146C49.6578 66.8161 48.264 66.2025 47.1217 65.2421C46.9066 65.0709 46.6399 64.9754 46.3642 64.9694C45.6658 65.0179 45.128 65.6026 45.1371 66.3026C45.1356 66.6086 45.2552 66.9025 45.4704 67.1207C47.0353 68.5296 49.0472 69.3401 51.1515 69.4083V71.0747C51.1515 71.0853 51.153 71.096 51.153 71.1066C51.1773 71.6247 51.6181 72.0246 52.1362 71.9989C52.6468 71.9989 53.0604 71.5853 53.0604 71.0747V69.378C57.1963 69.1053 58.8627 66.5904 58.8627 63.9241C58.8628 60.3487 55.8632 59.2579 53.0605 58.5004ZM51.1516 58.0156C49.5003 57.5308 48.2126 57.0309 48.2126 55.622C48.2126 54.213 49.3791 53.198 51.1516 53.0617V58.0156ZM53.0605 67.0449V61.5304C54.7724 62.0152 56.1056 62.6666 56.0904 64.2573C56.0904 65.4087 55.3026 66.7722 53.0605 67.0449Z" fill="#161C24"/>
</g>
<g clip-path="url(#clip1)">
<path d="M89.0605 58.5004V53.1677C90.2012 53.3601 91.2769 53.8282 92.1965 54.5312C92.3798 54.6569 92.5949 54.7251 92.8176 54.7281C93.5312 54.7281 94.113 54.1539 94.1205 53.4404C94.122 53.1344 94.0023 52.8405 93.7872 52.6223C92.4586 51.4845 90.7921 50.8134 89.0453 50.7134V48.9258C89.0453 48.4152 88.6318 48.0016 88.1212 48.0016C88.1106 48.0001 88.1 48.0001 88.0894 48.0001C87.5712 47.9925 87.144 48.4061 87.1364 48.9258V50.6528C83.7277 50.8952 81.4098 53.0011 81.4098 55.8037C81.4098 59.2427 84.3337 60.1972 87.1364 60.9547V67.0146C85.6578 66.8161 84.264 66.2025 83.1217 65.2421C82.9066 65.0709 82.6399 64.9754 82.3642 64.9694C81.6658 65.0179 81.128 65.6026 81.1371 66.3026C81.1356 66.6086 81.2552 66.9025 81.4704 67.1207C83.0353 68.5296 85.0472 69.3401 87.1515 69.4083V71.0747C87.1515 71.0853 87.153 71.096 87.153 71.1066C87.1773 71.6247 87.6181 72.0246 88.1362 71.9989C88.6468 71.9989 89.0604 71.5853 89.0604 71.0747V69.378C93.1963 69.1053 94.8627 66.5904 94.8627 63.9241C94.8628 60.3487 91.8632 59.2579 89.0605 58.5004ZM87.1516 58.0156C85.5003 57.5308 84.2126 57.0309 84.2126 55.622C84.2126 54.213 85.3791 53.198 87.1516 53.0617V58.0156ZM89.0605 67.0449V61.5304C90.7724 62.0152 92.1056 62.6666 92.0904 64.2573C92.0904 65.4087 91.3026 66.7722 89.0605 67.0449Z" fill="#161C24"/>
</g>
<g clip-path="url(#clip2)">
<path d="M125.06 58.5004V53.1677C126.201 53.3601 127.277 53.8282 128.196 54.5312C128.38 54.6569 128.595 54.7251 128.818 54.7281C129.531 54.7281 130.113 54.1539 130.12 53.4404C130.122 53.1344 130.002 52.8405 129.787 52.6223C128.459 51.4845 126.792 50.8134 125.045 50.7134V48.9258C125.045 48.4152 124.632 48.0016 124.121 48.0016C124.111 48.0001 124.1 48.0001 124.089 48.0001C123.571 47.9925 123.144 48.4061 123.136 48.9258V50.6528C119.728 50.8952 117.41 53.0011 117.41 55.8037C117.41 59.2427 120.334 60.1972 123.136 60.9547V67.0146C121.658 66.8161 120.264 66.2025 119.122 65.2421C118.907 65.0709 118.64 64.9754 118.364 64.9694C117.666 65.0179 117.128 65.6026 117.137 66.3026C117.136 66.6086 117.255 66.9025 117.47 67.1207C119.035 68.5296 121.047 69.3401 123.152 69.4083V71.0747C123.152 71.0853 123.153 71.096 123.153 71.1066C123.177 71.6247 123.618 72.0246 124.136 71.9989C124.647 71.9989 125.06 71.5853 125.06 71.0747V69.378C129.196 69.1053 130.863 66.5904 130.863 63.9241C130.863 60.3487 127.863 59.2579 125.06 58.5004ZM123.152 58.0156C121.5 57.5308 120.213 57.0309 120.213 55.622C120.213 54.213 121.379 53.198 123.152 53.0617V58.0156ZM125.06 67.0449V61.5304C126.772 62.0152 128.106 62.6666 128.09 64.2573C128.09 65.4087 127.303 66.7722 125.06 67.0449Z" fill="#161C24"/>
</g>
<g clip-path="url(#clip3)">
<path d="M53.0605 94.5004V89.1677C54.2012 89.3601 55.2769 89.8282 56.1965 90.5312C56.3798 90.6569 56.5949 90.7251 56.8176 90.7281C57.5312 90.7281 58.113 90.1539 58.1205 89.4404C58.122 89.1344 58.0023 88.8405 57.7872 88.6223C56.4586 87.4845 54.7921 86.8134 53.0453 86.7134V84.9258C53.0453 84.4152 52.6318 84.0016 52.1212 84.0016C52.1106 84.0001 52.1 84.0001 52.0894 84.0001C51.5712 83.9925 51.144 84.4061 51.1364 84.9258V86.6528C47.7277 86.8952 45.4098 89.0011 45.4098 91.8037C45.4098 95.2427 48.3337 96.1972 51.1364 96.9547V103.015C49.6578 102.816 48.264 102.203 47.1217 101.242C46.9066 101.071 46.6399 100.975 46.3642 100.969C45.6658 101.018 45.128 101.603 45.1371 102.303C45.1356 102.609 45.2552 102.902 45.4704 103.121C47.0353 104.53 49.0472 105.34 51.1515 105.408V107.075C51.1515 107.085 51.153 107.096 51.153 107.107C51.1773 107.625 51.6181 108.025 52.1362 107.999C52.6468 107.999 53.0604 107.585 53.0604 107.075V105.378C57.1963 105.105 58.8627 102.59 58.8627 99.9241C58.8628 96.3487 55.8632 95.2579 53.0605 94.5004ZM51.1516 94.0156C49.5003 93.5308 48.2126 93.0309 48.2126 91.622C48.2126 90.213 49.3791 89.198 51.1516 89.0617V94.0156ZM53.0605 103.045V97.5304C54.7724 98.0152 56.1056 98.6666 56.0904 100.257C56.0904 101.409 55.3026 102.772 53.0605 103.045Z" fill="#161C24"/>
</g>
<g clip-path="url(#clip4)">
<path d="M89.0605 94.5004V89.1677C90.2012 89.3601 91.2769 89.8282 92.1965 90.5312C92.3798 90.6569 92.5949 90.7251 92.8176 90.7281C93.5312 90.7281 94.113 90.1539 94.1205 89.4404C94.122 89.1344 94.0023 88.8405 93.7872 88.6223C92.4586 87.4845 90.7921 86.8134 89.0453 86.7134V84.9258C89.0453 84.4152 88.6318 84.0016 88.1212 84.0016C88.1106 84.0001 88.1 84.0001 88.0894 84.0001C87.5712 83.9925 87.144 84.4061 87.1364 84.9258V86.6528C83.7277 86.8952 81.4098 89.0011 81.4098 91.8037C81.4098 95.2427 84.3337 96.1972 87.1364 96.9547V103.015C85.6578 102.816 84.264 102.203 83.1217 101.242C82.9066 101.071 82.6399 100.975 82.3642 100.969C81.6658 101.018 81.128 101.603 81.1371 102.303C81.1356 102.609 81.2552 102.902 81.4704 103.121C83.0353 104.53 85.0472 105.34 87.1515 105.408V107.075C87.1515 107.085 87.153 107.096 87.153 107.107C87.1773 107.625 87.6181 108.025 88.1362 107.999C88.6468 107.999 89.0604 107.585 89.0604 107.075V105.378C93.1963 105.105 94.8627 102.59 94.8627 99.9241C94.8628 96.3487 91.8632 95.2579 89.0605 94.5004ZM87.1516 94.0156C85.5003 93.5308 84.2126 93.0309 84.2126 91.622C84.2126 90.213 85.3791 89.198 87.1516 89.0617V94.0156ZM89.0605 103.045V97.5304C90.7724 98.0152 92.1056 98.6666 92.0904 100.257C92.0904 101.409 91.3026 102.772 89.0605 103.045Z" fill="#161C24"/>
</g>
<g clip-path="url(#clip5)">
<path d="M125.06 94.5004V89.1677C126.201 89.3601 127.277 89.8282 128.196 90.5312C128.38 90.6569 128.595 90.7251 128.818 90.7281C129.531 90.7281 130.113 90.1539 130.12 89.4404C130.122 89.1344 130.002 88.8405 129.787 88.6223C128.459 87.4845 126.792 86.8134 125.045 86.7134V84.9258C125.045 84.4152 124.632 84.0016 124.121 84.0016C124.111 84.0001 124.1 84.0001 124.089 84.0001C123.571 83.9925 123.144 84.4061 123.136 84.9258V86.6528C119.728 86.8952 117.41 89.0011 117.41 91.8037C117.41 95.2427 120.334 96.1972 123.136 96.9547V103.015C121.658 102.816 120.264 102.203 119.122 101.242C118.907 101.071 118.64 100.975 118.364 100.969C117.666 101.018 117.128 101.603 117.137 102.303C117.136 102.609 117.255 102.902 117.47 103.121C119.035 104.53 121.047 105.34 123.152 105.408V107.075C123.152 107.085 123.153 107.096 123.153 107.107C123.177 107.625 123.618 108.025 124.136 107.999C124.647 107.999 125.06 107.585 125.06 107.075V105.378C129.196 105.105 130.863 102.59 130.863 99.9241C130.863 96.3487 127.863 95.2579 125.06 94.5004ZM123.152 94.0156C121.5 93.5308 120.213 93.0309 120.213 91.622C120.213 90.213 121.379 89.198 123.152 89.0617V94.0156ZM125.06 103.045V97.5304C126.772 98.0152 128.106 98.6666 128.09 100.257C128.09 101.409 127.303 102.772 125.06 103.045Z" fill="#161C24"/>
</g>
<g clip-path="url(#clip6)">
<path d="M53.0605 130.5V125.168C54.2012 125.36 55.2769 125.828 56.1965 126.531C56.3798 126.657 56.5949 126.725 56.8176 126.728C57.5312 126.728 58.113 126.154 58.1205 125.44C58.122 125.134 58.0023 124.84 57.7872 124.622C56.4586 123.485 54.7921 122.813 53.0453 122.713V120.926C53.0453 120.415 52.6318 120.002 52.1212 120.002C52.1106 120 52.1 120 52.0894 120C51.5712 119.993 51.144 120.406 51.1364 120.926V122.653C47.7277 122.895 45.4098 125.001 45.4098 127.804C45.4098 131.243 48.3337 132.197 51.1364 132.955V139.015C49.6578 138.816 48.264 138.203 47.1217 137.242C46.9066 137.071 46.6399 136.975 46.3642 136.969C45.6658 137.018 45.128 137.603 45.1371 138.303C45.1356 138.609 45.2552 138.902 45.4704 139.121C47.0353 140.53 49.0472 141.34 51.1515 141.408V143.075C51.1515 143.085 51.153 143.096 51.153 143.107C51.1773 143.625 51.6181 144.025 52.1362 143.999C52.6468 143.999 53.0604 143.585 53.0604 143.075V141.378C57.1963 141.105 58.8627 138.59 58.8627 135.924C58.8628 132.349 55.8632 131.258 53.0605 130.5ZM51.1516 130.016C49.5003 129.531 48.2126 129.031 48.2126 127.622C48.2126 126.213 49.3791 125.198 51.1516 125.062V130.016ZM53.0605 139.045V133.53C54.7724 134.015 56.1056 134.667 56.0904 136.257C56.0904 137.409 55.3026 138.772 53.0605 139.045Z" fill="#161C24"/>
</g>
<g clip-path="url(#clip7)">
<path d="M89.0605 130.5V125.168C90.2012 125.36 91.2769 125.828 92.1965 126.531C92.3798 126.657 92.5949 126.725 92.8176 126.728C93.5312 126.728 94.113 126.154 94.1205 125.44C94.122 125.134 94.0023 124.84 93.7872 124.622C92.4586 123.485 90.7921 122.813 89.0453 122.713V120.926C89.0453 120.415 88.6318 120.002 88.1212 120.002C88.1106 120 88.1 120 88.0894 120C87.5712 119.993 87.144 120.406 87.1364 120.926V122.653C83.7277 122.895 81.4098 125.001 81.4098 127.804C81.4098 131.243 84.3337 132.197 87.1364 132.955V139.015C85.6578 138.816 84.264 138.203 83.1217 137.242C82.9066 137.071 82.6399 136.975 82.3642 136.969C81.6658 137.018 81.128 137.603 81.1371 138.303C81.1356 138.609 81.2552 138.902 81.4704 139.121C83.0353 140.53 85.0472 141.34 87.1515 141.408V143.075C87.1515 143.085 87.153 143.096 87.153 143.107C87.1773 143.625 87.6181 144.025 88.1362 143.999C88.6468 143.999 89.0604 143.585 89.0604 143.075V141.378C93.1963 141.105 94.8627 138.59 94.8627 135.924C94.8628 132.349 91.8632 131.258 89.0605 130.5ZM87.1516 130.016C85.5003 129.531 84.2126 129.031 84.2126 127.622C84.2126 126.213 85.3791 125.198 87.1516 125.062V130.016ZM89.0605 139.045V133.53C90.7724 134.015 92.1056 134.667 92.0904 136.257C92.0904 137.409 91.3026 138.772 89.0605 139.045Z" fill="#161C24"/>
</g>
<g clip-path="url(#clip8)">
<path d="M125.06 130.5V125.168C126.201 125.36 127.277 125.828 128.196 126.531C128.38 126.657 128.595 126.725 128.818 126.728C129.531 126.728 130.113 126.154 130.12 125.44C130.122 125.134 130.002 124.84 129.787 124.622C128.459 123.485 126.792 122.813 125.045 122.713V120.926C125.045 120.415 124.632 120.002 124.121 120.002C124.111 120 124.1 120 124.089 120C123.571 119.993 123.144 120.406 123.136 120.926V122.653C119.728 122.895 117.41 125.001 117.41 127.804C117.41 131.243 120.334 132.197 123.136 132.955V139.015C121.658 138.816 120.264 138.203 119.122 137.242C118.907 137.071 118.64 136.975 118.364 136.969C117.666 137.018 117.128 137.603 117.137 138.303C117.136 138.609 117.255 138.902 117.47 139.121C119.035 140.53 121.047 141.34 123.152 141.408V143.075C123.152 143.085 123.153 143.096 123.153 143.107C123.177 143.625 123.618 144.025 124.136 143.999C124.647 143.999 125.06 143.585 125.06 143.075V141.378C129.196 141.105 130.863 138.59 130.863 135.924C130.863 132.349 127.863 131.258 125.06 130.5ZM123.152 130.016C121.5 129.531 120.213 129.031 120.213 127.622C120.213 126.213 121.379 125.198 123.152 125.062V130.016ZM125.06 139.045V133.53C126.772 134.015 128.106 134.667 128.09 136.257C128.09 137.409 127.303 138.772 125.06 139.045Z" fill="#161C24"/>
</g>
<circle cx="244" cy="44" r="36" fill="#00D3E3"/>
<g clip-path="url(#clip9)">
<path d="M245.06 42.5004V37.1677C246.201 37.3601 247.277 37.8282 248.196 38.5312C248.38 38.6569 248.595 38.7251 248.818 38.7281C249.531 38.7281 250.113 38.1539 250.12 37.4404C250.122 37.1344 250.002 36.8405 249.787 36.6223C248.459 35.4845 246.792 34.8134 245.045 34.7134V32.9258C245.045 32.4152 244.632 32.0016 244.121 32.0016C244.111 32.0001 244.1 32.0001 244.089 32.0001C243.571 31.9925 243.144 32.4061 243.136 32.9258V34.6528C239.728 34.8952 237.41 37.0011 237.41 39.8037C237.41 43.2427 240.334 44.1972 243.136 44.9547V51.0146C241.658 50.8161 240.264 50.2025 239.122 49.2421C238.907 49.0709 238.64 48.9754 238.364 48.9694C237.666 49.0179 237.128 49.6026 237.137 50.3026C237.136 50.6086 237.255 50.9025 237.47 51.1207C239.035 52.5296 241.047 53.3401 243.152 53.4083V55.0747C243.152 55.0853 243.153 55.096 243.153 55.1066C243.177 55.6247 243.618 56.0246 244.136 55.9989C244.647 55.9989 245.06 55.5853 245.06 55.0747V53.378C249.196 53.1053 250.863 50.5904 250.863 47.9241C250.863 44.3487 247.863 43.2579 245.06 42.5004ZM243.152 42.0156C241.5 41.5308 240.213 41.0309 240.213 39.622C240.213 38.213 241.379 37.198 243.152 37.0617V42.0156ZM245.06 51.0449V45.5304C246.772 46.0152 248.106 46.6666 248.09 48.2573C248.09 49.4087 247.303 50.7722 245.06 51.0449Z" fill="#161C24"/>
</g>
<circle cx="348" cy="44" r="36" fill="#00D3E3"/>
<g clip-path="url(#clip10)">
<path d="M349.06 42.5004V37.1677C350.201 37.3601 351.277 37.8282 352.196 38.5312C352.38 38.6569 352.595 38.7251 352.818 38.7281C353.531 38.7281 354.113 38.1539 354.12 37.4404C354.122 37.1344 354.002 36.8405 353.787 36.6223C352.459 35.4845 350.792 34.8134 349.045 34.7134V32.9258C349.045 32.4152 348.632 32.0016 348.121 32.0016C348.111 32.0001 348.1 32.0001 348.089 32.0001C347.571 31.9925 347.144 32.4061 347.136 32.9258V34.6528C343.728 34.8952 341.41 37.0011 341.41 39.8037C341.41 43.2427 344.334 44.1972 347.136 44.9547V51.0146C345.658 50.8161 344.264 50.2025 343.122 49.2421C342.907 49.0709 342.64 48.9754 342.364 48.9694C341.666 49.0179 341.128 49.6026 341.137 50.3026C341.136 50.6086 341.255 50.9025 341.47 51.1207C343.035 52.5296 345.047 53.3401 347.152 53.4083V55.0747C347.152 55.0853 347.153 55.096 347.153 55.1066C347.177 55.6247 347.618 56.0246 348.136 55.9989C348.647 55.9989 349.06 55.5853 349.06 55.0747V53.378C353.196 53.1053 354.863 50.5904 354.863 47.9241C354.863 44.3487 351.863 43.2579 349.06 42.5004ZM347.152 42.0156C345.5 41.5308 344.213 41.0309 344.213 39.622C344.213 38.213 345.379 37.198 347.152 37.0617V42.0156ZM349.06 51.0449V45.5304C350.772 46.0152 352.106 46.6666 352.09 48.2573C352.09 49.4087 351.303 50.7722 349.06 51.0449Z" fill="#161C24"/>
</g>
<circle cx="452" cy="148" r="36" fill="#00D3E3"/>
<g clip-path="url(#clip11)">
<path d="M453.06 146.5V141.168C454.201 141.36 455.277 141.828 456.196 142.531C456.38 142.657 456.595 142.725 456.818 142.728C457.531 142.728 458.113 142.154 458.12 141.44C458.122 141.134 458.002 140.84 457.787 140.622C456.459 139.485 454.792 138.813 453.045 138.713V136.926C453.045 136.415 452.632 136.002 452.121 136.002C452.111 136 452.1 136 452.089 136C451.571 135.993 451.144 136.406 451.136 136.926V138.653C447.728 138.895 445.41 141.001 445.41 143.804C445.41 147.243 448.334 148.197 451.136 148.955V155.015C449.658 154.816 448.264 154.203 447.122 153.242C446.907 153.071 446.64 152.975 446.364 152.969C445.666 153.018 445.128 153.603 445.137 154.303C445.136 154.609 445.255 154.902 445.47 155.121C447.035 156.53 449.047 157.34 451.152 157.408V159.075C451.152 159.085 451.153 159.096 451.153 159.107C451.177 159.625 451.618 160.025 452.136 159.999C452.647 159.999 453.06 159.585 453.06 159.075V157.378C457.196 157.105 458.863 154.59 458.863 151.924C458.863 148.349 455.863 147.258 453.06 146.5ZM451.152 146.016C449.5 145.531 448.213 145.031 448.213 143.622C448.213 142.213 449.379 141.198 451.152 141.062V146.016ZM453.06 155.045V149.53C454.772 150.015 456.106 150.667 456.09 152.257C456.09 153.409 455.303 154.772 453.06 155.045Z" fill="#161C24"/>
</g>
<circle cx="452" cy="250" r="36" fill="#00D3E3"/>
<g clip-path="url(#clip12)">
<path d="M453.06 248.5V243.168C454.201 243.36 455.277 243.828 456.196 244.531C456.38 244.657 456.595 244.725 456.818 244.728C457.531 244.728 458.113 244.154 458.12 243.44C458.122 243.134 458.002 242.84 457.787 242.622C456.459 241.485 454.792 240.813 453.045 240.713V238.926C453.045 238.415 452.632 238.002 452.121 238.002C452.111 238 452.1 238 452.089 238C451.571 237.993 451.144 238.406 451.136 238.926V240.653C447.728 240.895 445.41 243.001 445.41 245.804C445.41 249.243 448.334 250.197 451.136 250.955V257.015C449.658 256.816 448.264 256.203 447.122 255.242C446.907 255.071 446.64 254.975 446.364 254.969C445.666 255.018 445.128 255.603 445.137 256.303C445.136 256.609 445.255 256.902 445.47 257.121C447.035 258.53 449.047 259.34 451.152 259.408V261.075C451.152 261.085 451.153 261.096 451.153 261.107C451.177 261.625 451.618 262.025 452.136 261.999C452.647 261.999 453.06 261.585 453.06 261.075V259.378C457.196 259.105 458.863 256.59 458.863 253.924C458.863 250.349 455.863 249.258 453.06 248.5ZM451.152 248.016C449.5 247.531 448.213 247.031 448.213 245.622C448.213 244.213 449.379 243.198 451.152 243.062V248.016ZM453.06 257.045V251.53C454.772 252.015 456.106 252.667 456.09 254.257C456.09 255.409 455.303 256.772 453.06 257.045Z" fill="#161C24"/>
</g>
<circle cx="36" cy="250" r="36" fill="#00D3E3"/>
<g clip-path="url(#clip13)">
<path d="M37.0605 248.5V243.168C38.2012 243.36 39.2769 243.828 40.1965 244.531C40.3798 244.657 40.5949 244.725 40.8176 244.728C41.5312 244.728 42.113 244.154 42.1205 243.44C42.122 243.134 42.0023 242.84 41.7872 242.622C40.4586 241.485 38.7921 240.813 37.0453 240.713V238.926C37.0453 238.415 36.6318 238.002 36.1212 238.002C36.1106 238 36.1 238 36.0894 238C35.5712 237.993 35.144 238.406 35.1364 238.926V240.653C31.7277 240.895 29.4098 243.001 29.4098 245.804C29.4098 249.243 32.3337 250.197 35.1364 250.955V257.015C33.6578 256.816 32.264 256.203 31.1217 255.242C30.9066 255.071 30.6399 254.975 30.3642 254.969C29.6658 255.018 29.128 255.603 29.1371 256.303C29.1356 256.609 29.2552 256.902 29.4704 257.121C31.0353 258.53 33.0472 259.34 35.1515 259.408V261.075C35.1515 261.085 35.153 261.096 35.153 261.107C35.1773 261.625 35.6181 262.025 36.1362 261.999C36.6468 261.999 37.0604 261.585 37.0604 261.075V259.378C41.1963 259.105 42.8627 256.59 42.8627 253.924C42.8628 250.349 39.8632 249.258 37.0605 248.5ZM35.1516 248.016C33.5003 247.531 32.2126 247.031 32.2126 245.622C32.2126 244.213 33.3791 243.198 35.1516 243.062V248.016ZM37.0605 257.045V251.53C38.7724 252.015 40.1056 252.667 40.0904 254.257C40.0904 255.409 39.3026 256.772 37.0605 257.045Z" fill="#161C24"/>
</g>
<circle cx="244" cy="250" r="36" fill="#00D3E3"/>
<g clip-path="url(#clip14)">
<path d="M245.06 248.5V243.168C246.201 243.36 247.277 243.828 248.196 244.531C248.38 244.657 248.595 244.725 248.818 244.728C249.531 244.728 250.113 244.154 250.12 243.44C250.122 243.134 250.002 242.84 249.787 242.622C248.459 241.485 246.792 240.813 245.045 240.713V238.926C245.045 238.415 244.632 238.002 244.121 238.002C244.111 238 244.1 238 244.089 238C243.571 237.993 243.144 238.406 243.136 238.926V240.653C239.728 240.895 237.41 243.001 237.41 245.804C237.41 249.243 240.334 250.197 243.136 250.955V257.015C241.658 256.816 240.264 256.203 239.122 255.242C238.907 255.071 238.64 254.975 238.364 254.969C237.666 255.018 237.128 255.603 237.137 256.303C237.136 256.609 237.255 256.902 237.47 257.121C239.035 258.53 241.047 259.34 243.152 259.408V261.075C243.152 261.085 243.153 261.096 243.153 261.107C243.177 261.625 243.618 262.025 244.136 261.999C244.647 261.999 245.06 261.585 245.06 261.075V259.378C249.196 259.105 250.863 256.59 250.863 253.924C250.863 250.349 247.863 249.258 245.06 248.5ZM243.152 248.016C241.5 247.531 240.213 247.031 240.213 245.622C240.213 244.213 241.379 243.198 243.152 243.062V248.016ZM245.06 257.045V251.53C246.772 252.015 248.106 252.667 248.09 254.257C248.09 255.409 247.303 256.772 245.06 257.045Z" fill="#161C24"/>
</g>
<circle cx="348" cy="148" r="36" fill="#00D3E3" fill-opacity="0.16"/>
<path d="M349.88 148L355.613 142.28C356.136 141.757 356.136 140.91 355.613 140.387C355.09 139.864 354.243 139.864 353.72 140.387L348 146.12L342.28 140.387C341.757 139.864 340.909 139.864 340.387 140.387C339.864 140.91 339.864 141.757 340.387 142.28L346.12 148L340.387 153.72C340.134 153.97 339.992 154.311 339.992 154.667C339.992 155.022 340.134 155.363 340.387 155.613C340.637 155.866 340.978 156.008 341.333 156.008C341.689 156.008 342.03 155.866 342.28 155.613L348 149.88L353.72 155.613C353.97 155.866 354.311 156.008 354.667 156.008C355.022 156.008 355.363 155.866 355.613 155.613C355.866 155.363 356.008 155.022 356.008 154.667C356.008 154.311 355.866 153.97 355.613 153.72L349.88 148Z" fill="#212B36"/>
<circle cx="140" cy="250" r="36" fill="#00D3E3" fill-opacity="0.16"/>
<path d="M141.88 250L147.613 244.28C148.136 243.757 148.136 242.91 147.613 242.387C147.09 241.864 146.243 241.864 145.72 242.387L140 248.12L134.28 242.387C133.757 241.864 132.909 241.864 132.387 242.387C131.864 242.91 131.864 243.757 132.387 244.28L138.12 250L132.387 255.72C132.134 255.97 131.992 256.311 131.992 256.667C131.992 257.022 132.134 257.363 132.387 257.613C132.637 257.866 132.978 258.008 133.333 258.008C133.689 258.008 134.03 257.866 134.28 257.613L140 251.88L145.72 257.613C145.97 257.866 146.311 258.008 146.667 258.008C147.022 258.008 147.363 257.866 147.613 257.613C147.866 257.363 148.008 257.022 148.008 256.667C148.008 256.311 147.866 255.97 147.613 255.72L141.88 250Z" fill="#212B36"/>
<circle cx="452" cy="44" r="44" fill="#00D3E3"/>
<g clip-path="url(#clip15)">
<path d="M437.06 42.5004V37.1677C438.201 37.3601 439.277 37.8282 440.196 38.5312C440.38 38.6569 440.595 38.7251 440.818 38.7281C441.531 38.7281 442.113 38.1539 442.12 37.4404C442.122 37.1344 442.002 36.8405 441.787 36.6223C440.459 35.4845 438.792 34.8134 437.045 34.7134V32.9258C437.045 32.4152 436.632 32.0016 436.121 32.0016C436.111 32.0001 436.1 32.0001 436.089 32.0001C435.571 31.9925 435.144 32.4061 435.136 32.9258V34.6528C431.728 34.8952 429.41 37.0011 429.41 39.8037C429.41 43.2427 432.334 44.1972 435.136 44.9547V51.0146C433.658 50.8161 432.264 50.2025 431.122 49.2421C430.907 49.0709 430.64 48.9754 430.364 48.9694C429.666 49.0179 429.128 49.6026 429.137 50.3026C429.136 50.6086 429.255 50.9025 429.47 51.1207C431.035 52.5296 433.047 53.3401 435.152 53.4083V55.0747C435.152 55.0853 435.153 55.096 435.153 55.1066C435.177 55.6247 435.618 56.0246 436.136 55.9989C436.647 55.9989 437.06 55.5853 437.06 55.0747V53.378C441.196 53.1053 442.863 50.5904 442.863 47.9241C442.863 44.3487 439.863 43.2579 437.06 42.5004ZM435.152 42.0156C433.5 41.5308 432.213 41.0309 432.213 39.622C432.213 38.213 433.379 37.198 435.152 37.0617V42.0156ZM437.06 51.0449V45.5304C438.772 46.0152 440.106 46.6666 440.09 48.2573C440.09 49.4087 439.303 50.7722 437.06 51.0449Z" fill="#161C24"/>
</g>
<g clip-path="url(#clip16)">
<path d="M469.06 42.5004V37.1677C470.201 37.3601 471.277 37.8282 472.196 38.5312C472.38 38.6569 472.595 38.7251 472.818 38.7281C473.531 38.7281 474.113 38.1539 474.12 37.4404C474.122 37.1344 474.002 36.8405 473.787 36.6223C472.459 35.4845 470.792 34.8134 469.045 34.7134V32.9258C469.045 32.4152 468.632 32.0016 468.121 32.0016C468.111 32.0001 468.1 32.0001 468.089 32.0001C467.571 31.9925 467.144 32.4061 467.136 32.9258V34.6528C463.728 34.8952 461.41 37.0011 461.41 39.8037C461.41 43.2427 464.334 44.1972 467.136 44.9547V51.0146C465.658 50.8161 464.264 50.2025 463.122 49.2421C462.907 49.0709 462.64 48.9754 462.364 48.9694C461.666 49.0179 461.128 49.6026 461.137 50.3026C461.136 50.6086 461.255 50.9025 461.47 51.1207C463.035 52.5296 465.047 53.3401 467.152 53.4083V55.0747C467.152 55.0853 467.153 55.096 467.153 55.1066C467.177 55.6247 467.618 56.0246 468.136 55.9989C468.647 55.9989 469.06 55.5853 469.06 55.0747V53.378C473.196 53.1053 474.863 50.5904 474.863 47.9241C474.863 44.3487 471.863 43.2579 469.06 42.5004ZM467.152 42.0156C465.5 41.5308 464.213 41.0309 464.213 39.622C464.213 38.213 465.379 37.198 467.152 37.0617V42.0156ZM469.06 51.0449V45.5304C470.772 46.0152 472.106 46.6666 472.09 48.2573C472.09 49.4087 471.303 50.7722 469.06 51.0449Z" fill="#161C24"/>
</g>
<circle cx="244" cy="148" r="44" fill="#00D3E3"/>
<g clip-path="url(#clip17)">
<path d="M229.06 146.5V141.168C230.201 141.36 231.277 141.828 232.196 142.531C232.38 142.657 232.595 142.725 232.818 142.728C233.531 142.728 234.113 142.154 234.12 141.44C234.122 141.134 234.002 140.84 233.787 140.622C232.459 139.485 230.792 138.813 229.045 138.713V136.926C229.045 136.415 228.632 136.002 228.121 136.002C228.111 136 228.1 136 228.089 136C227.571 135.993 227.144 136.406 227.136 136.926V138.653C223.728 138.895 221.41 141.001 221.41 143.804C221.41 147.243 224.334 148.197 227.136 148.955V155.015C225.658 154.816 224.264 154.203 223.122 153.242C222.907 153.071 222.64 152.975 222.364 152.969C221.666 153.018 221.128 153.603 221.137 154.303C221.136 154.609 221.255 154.902 221.47 155.121C223.035 156.53 225.047 157.34 227.152 157.408V159.075C227.152 159.085 227.153 159.096 227.153 159.107C227.177 159.625 227.618 160.025 228.136 159.999C228.647 159.999 229.06 159.585 229.06 159.075V157.378C233.196 157.105 234.863 154.59 234.863 151.924C234.863 148.349 231.863 147.258 229.06 146.5ZM227.152 146.016C225.5 145.531 224.213 145.031 224.213 143.622C224.213 142.213 225.379 141.198 227.152 141.062V146.016ZM229.06 155.045V149.53C230.772 150.015 232.106 150.667 232.09 152.257C232.09 153.409 231.303 154.772 229.06 155.045Z" fill="#161C24"/>
</g>
<g clip-path="url(#clip18)">
<path d="M261.06 146.5V141.168C262.201 141.36 263.277 141.828 264.196 142.531C264.38 142.657 264.595 142.725 264.818 142.728C265.531 142.728 266.113 142.154 266.12 141.44C266.122 141.134 266.002 140.84 265.787 140.622C264.459 139.485 262.792 138.813 261.045 138.713V136.926C261.045 136.415 260.632 136.002 260.121 136.002C260.111 136 260.1 136 260.089 136C259.571 135.993 259.144 136.406 259.136 136.926V138.653C255.728 138.895 253.41 141.001 253.41 143.804C253.41 147.243 256.334 148.197 259.136 148.955V155.015C257.658 154.816 256.264 154.203 255.122 153.242C254.907 153.071 254.64 152.975 254.364 152.969C253.666 153.018 253.128 153.603 253.137 154.303C253.136 154.609 253.255 154.902 253.47 155.121C255.035 156.53 257.047 157.34 259.152 157.408V159.075C259.152 159.085 259.153 159.096 259.153 159.107C259.177 159.625 259.618 160.025 260.136 159.999C260.647 159.999 261.06 159.585 261.06 159.075V157.378C265.196 157.105 266.863 154.59 266.863 151.924C266.863 148.349 263.863 147.258 261.06 146.5ZM259.152 146.016C257.5 145.531 256.213 145.031 256.213 143.622C256.213 142.213 257.379 141.198 259.152 141.062V146.016ZM261.06 155.045V149.53C262.772 150.015 264.106 150.667 264.09 152.257C264.09 153.409 263.303 154.772 261.06 155.045Z" fill="#161C24"/>
</g>
<circle cx="348" cy="252" r="44" fill="#00D3E3"/>
<g clip-path="url(#clip19)">
<path d="M333.06 250.5V245.168C334.201 245.36 335.277 245.828 336.196 246.531C336.38 246.657 336.595 246.725 336.818 246.728C337.531 246.728 338.113 246.154 338.12 245.44C338.122 245.134 338.002 244.84 337.787 244.622C336.459 243.485 334.792 242.813 333.045 242.713V240.926C333.045 240.415 332.632 240.002 332.121 240.002C332.111 240 332.1 240 332.089 240C331.571 239.993 331.144 240.406 331.136 240.926V242.653C327.728 242.895 325.41 245.001 325.41 247.804C325.41 251.243 328.334 252.197 331.136 252.955V259.015C329.658 258.816 328.264 258.203 327.122 257.242C326.907 257.071 326.64 256.975 326.364 256.969C325.666 257.018 325.128 257.603 325.137 258.303C325.136 258.609 325.255 258.902 325.47 259.121C327.035 260.53 329.047 261.34 331.152 261.408V263.075C331.152 263.085 331.153 263.096 331.153 263.107C331.177 263.625 331.618 264.025 332.136 263.999C332.647 263.999 333.06 263.585 333.06 263.075V261.378C337.196 261.105 338.863 258.59 338.863 255.924C338.863 252.349 335.863 251.258 333.06 250.5ZM331.152 250.016C329.5 249.531 328.213 249.031 328.213 247.622C328.213 246.213 329.379 245.198 331.152 245.062V250.016ZM333.06 259.045V253.53C334.772 254.015 336.106 254.667 336.09 256.257C336.09 257.409 335.303 258.772 333.06 259.045Z" fill="#161C24"/>
</g>
<g clip-path="url(#clip20)">
<path d="M365.06 250.5V245.168C366.201 245.36 367.277 245.828 368.196 246.531C368.38 246.657 368.595 246.725 368.818 246.728C369.531 246.728 370.113 246.154 370.12 245.44C370.122 245.134 370.002 244.84 369.787 244.622C368.459 243.485 366.792 242.813 365.045 242.713V240.926C365.045 240.415 364.632 240.002 364.121 240.002C364.111 240 364.1 240 364.089 240C363.571 239.993 363.144 240.406 363.136 240.926V242.653C359.728 242.895 357.41 245.001 357.41 247.804C357.41 251.243 360.334 252.197 363.136 252.955V259.015C361.658 258.816 360.264 258.203 359.122 257.242C358.907 257.071 358.64 256.975 358.364 256.969C357.666 257.018 357.128 257.603 357.137 258.303C357.136 258.609 357.255 258.902 357.47 259.121C359.035 260.53 361.047 261.34 363.152 261.408V263.075C363.152 263.085 363.153 263.096 363.153 263.107C363.177 263.625 363.618 264.025 364.136 263.999C364.647 263.999 365.06 263.585 365.06 263.075V261.378C369.196 261.105 370.863 258.59 370.863 255.924C370.863 252.349 367.863 251.258 365.06 250.5ZM363.152 250.016C361.5 249.531 360.213 249.031 360.213 247.622C360.213 246.213 361.379 245.198 363.152 245.062V250.016ZM365.06 259.045V253.53C366.772 254.015 368.106 254.667 368.09 256.257C368.09 257.409 367.303 258.772 365.06 259.045Z" fill="#161C24"/>
</g>
<defs>
<clipPath id="clip0">
<rect width="24" height="24" fill="white" transform="translate(40 48)"/>
</clipPath>
<clipPath id="clip1">
<rect width="24" height="24" fill="white" transform="translate(76 48)"/>
</clipPath>
<clipPath id="clip2">
<rect width="24" height="24" fill="white" transform="translate(112 48)"/>
</clipPath>
<clipPath id="clip3">
<rect width="24" height="24" fill="white" transform="translate(40 84)"/>
</clipPath>
<clipPath id="clip4">
<rect width="24" height="24" fill="white" transform="translate(76 84)"/>
</clipPath>
<clipPath id="clip5">
<rect width="24" height="24" fill="white" transform="translate(112 84)"/>
</clipPath>
<clipPath id="clip6">
<rect width="24" height="24" fill="white" transform="translate(40 120)"/>
</clipPath>
<clipPath id="clip7">
<rect width="24" height="24" fill="white" transform="translate(76 120)"/>
</clipPath>
<clipPath id="clip8">
<rect width="24" height="24" fill="white" transform="translate(112 120)"/>
</clipPath>
<clipPath id="clip9">
<rect width="24" height="24" fill="white" transform="translate(232 32)"/>
</clipPath>
<clipPath id="clip10">
<rect width="24" height="24" fill="white" transform="translate(336 32)"/>
</clipPath>
<clipPath id="clip11">
<rect width="24" height="24" fill="white" transform="translate(440 136)"/>
</clipPath>
<clipPath id="clip12">
<rect width="24" height="24" fill="white" transform="translate(440 238)"/>
</clipPath>
<clipPath id="clip13">
<rect width="24" height="24" fill="white" transform="translate(24 238)"/>
</clipPath>
<clipPath id="clip14">
<rect width="24" height="24" fill="white" transform="translate(232 238)"/>
</clipPath>
<clipPath id="clip15">
<rect width="24" height="24" fill="white" transform="translate(424 32)"/>
</clipPath>
<clipPath id="clip16">
<rect width="24" height="24" fill="white" transform="translate(456 32)"/>
</clipPath>
<clipPath id="clip17">
<rect width="24" height="24" fill="white" transform="translate(216 136)"/>
</clipPath>
<clipPath id="clip18">
<rect width="24" height="24" fill="white" transform="translate(248 136)"/>
</clipPath>
<clipPath id="clip19">
<rect width="24" height="24" fill="white" transform="translate(320 240)"/>
</clipPath>
<clipPath id="clip20">
<rect width="24" height="24" fill="white" transform="translate(352 240)"/>
</clipPath>
</defs>
</svg>
