<svg width="507" height="280" viewBox="0 0 507 280" fill="none" xmlns="http://www.w3.org/2000/svg">
<circle cx="64" cy="64" r="64" fill="#FFC107"/>
<g clip-path="url(#clip0)">
<path d="M33.0605 46.5004V41.1677C34.2012 41.3601 35.2769 41.8282 36.1965 42.5312C36.3798 42.6569 36.5949 42.7251 36.8176 42.7281C37.5312 42.7281 38.113 42.1539 38.1205 41.4404C38.122 41.1344 38.0023 40.8405 37.7872 40.6223C36.4586 39.4845 34.7921 38.8134 33.0453 38.7134V36.9258C33.0453 36.4152 32.6318 36.0016 32.1212 36.0016C32.1106 36.0001 32.1 36.0001 32.0894 36.0001C31.5712 35.9925 31.144 36.4061 31.1364 36.9258V38.6528C27.7277 38.8952 25.4098 41.0011 25.4098 43.8037C25.4098 47.2427 28.3337 48.1972 31.1364 48.9547V55.0146C29.6578 54.8161 28.264 54.2025 27.1217 53.2421C26.9066 53.0709 26.6399 52.9754 26.3642 52.9694C25.6658 53.0179 25.128 53.6026 25.1371 54.3026C25.1356 54.6086 25.2552 54.9025 25.4704 55.1207C27.0353 56.5296 29.0472 57.3401 31.1515 57.4083V59.0747C31.1515 59.0853 31.153 59.096 31.153 59.1066C31.1773 59.6247 31.6181 60.0246 32.1362 59.9989C32.6468 59.9989 33.0604 59.5853 33.0604 59.0747V57.378C37.1963 57.1053 38.8627 54.5904 38.8627 51.9241C38.8628 48.3487 35.8632 47.2579 33.0605 46.5004ZM31.1516 46.0156C29.5003 45.5308 28.2126 45.0309 28.2126 43.622C28.2126 42.213 29.3791 41.198 31.1516 41.0617V46.0156ZM33.0605 55.0449V49.5304C34.7724 50.0152 36.1056 50.6666 36.0904 52.2573C36.0904 53.4087 35.3026 54.7722 33.0605 55.0449Z" fill="#161C24"/>
</g>
<g clip-path="url(#clip1)">
<path d="M33.0605 78.5004V73.1677C34.2012 73.3601 35.2769 73.8282 36.1965 74.5312C36.3798 74.6569 36.5949 74.7251 36.8176 74.7281C37.5312 74.7281 38.113 74.1539 38.1205 73.4404C38.122 73.1344 38.0023 72.8405 37.7872 72.6223C36.4586 71.4845 34.7921 70.8134 33.0453 70.7134V68.9258C33.0453 68.4152 32.6318 68.0016 32.1212 68.0016C32.1106 68.0001 32.1 68.0001 32.0894 68.0001C31.5712 67.9925 31.144 68.4061 31.1364 68.9258V70.6528C27.7277 70.8952 25.4098 73.0011 25.4098 75.8037C25.4098 79.2427 28.3337 80.1972 31.1364 80.9547V87.0146C29.6578 86.8161 28.264 86.2025 27.1217 85.2421C26.9066 85.0709 26.6399 84.9754 26.3642 84.9694C25.6658 85.0179 25.128 85.6026 25.1371 86.3026C25.1356 86.6086 25.2552 86.9025 25.4704 87.1207C27.0353 88.5296 29.0472 89.3401 31.1515 89.4083V91.0747C31.1515 91.0853 31.153 91.096 31.153 91.1066C31.1773 91.6247 31.6181 92.0246 32.1362 91.9989C32.6468 91.9989 33.0604 91.5853 33.0604 91.0747V89.378C37.1963 89.1053 38.8627 86.5904 38.8627 83.9241C38.8628 80.3487 35.8632 79.2579 33.0605 78.5004ZM31.1516 78.0156C29.5003 77.5308 28.2126 77.0309 28.2126 75.622C28.2126 74.213 29.3791 73.198 31.1516 73.0617V78.0156ZM33.0605 87.0449V81.5304C34.7724 82.0152 36.1056 82.6666 36.0904 84.2573C36.0904 85.4087 35.3026 86.7722 33.0605 87.0449Z" fill="#161C24"/>
</g>
<g clip-path="url(#clip2)">
<path d="M65.0605 46.5004V41.1677C66.2012 41.3601 67.2769 41.8282 68.1965 42.5312C68.3798 42.6569 68.5949 42.7251 68.8176 42.7281C69.5312 42.7281 70.113 42.1539 70.1205 41.4404C70.122 41.1344 70.0023 40.8405 69.7872 40.6223C68.4586 39.4845 66.7921 38.8134 65.0453 38.7134V36.9258C65.0453 36.4152 64.6318 36.0016 64.1212 36.0016C64.1106 36.0001 64.1 36.0001 64.0894 36.0001C63.5712 35.9925 63.144 36.4061 63.1364 36.9258V38.6528C59.7277 38.8952 57.4098 41.0011 57.4098 43.8037C57.4098 47.2427 60.3337 48.1972 63.1364 48.9547V55.0146C61.6578 54.8161 60.264 54.2025 59.1217 53.2421C58.9066 53.0709 58.6399 52.9754 58.3642 52.9694C57.6658 53.0179 57.128 53.6026 57.1371 54.3026C57.1356 54.6086 57.2552 54.9025 57.4704 55.1207C59.0353 56.5296 61.0472 57.3401 63.1515 57.4083V59.0747C63.1515 59.0853 63.153 59.096 63.153 59.1066C63.1773 59.6247 63.6181 60.0246 64.1362 59.9989C64.6468 59.9989 65.0604 59.5853 65.0604 59.0747V57.378C69.1963 57.1053 70.8627 54.5904 70.8627 51.9241C70.8628 48.3487 67.8632 47.2579 65.0605 46.5004ZM63.1516 46.0156C61.5003 45.5308 60.2126 45.0309 60.2126 43.622C60.2126 42.213 61.3791 41.198 63.1516 41.0617V46.0156ZM65.0605 55.0449V49.5304C66.7724 50.0152 68.1056 50.6666 68.0904 52.2573C68.0904 53.4087 67.3026 54.7722 65.0605 55.0449Z" fill="#161C24"/>
</g>
<g clip-path="url(#clip3)">
<path d="M65.0605 78.5004V73.1677C66.2012 73.3601 67.2769 73.8282 68.1965 74.5312C68.3798 74.6569 68.5949 74.7251 68.8176 74.7281C69.5312 74.7281 70.113 74.1539 70.1205 73.4404C70.122 73.1344 70.0023 72.8405 69.7872 72.6223C68.4586 71.4845 66.7921 70.8134 65.0453 70.7134V68.9258C65.0453 68.4152 64.6318 68.0016 64.1212 68.0016C64.1106 68.0001 64.1 68.0001 64.0894 68.0001C63.5712 67.9925 63.144 68.4061 63.1364 68.9258V70.6528C59.7277 70.8952 57.4098 73.0011 57.4098 75.8037C57.4098 79.2427 60.3337 80.1972 63.1364 80.9547V87.0146C61.6578 86.8161 60.264 86.2025 59.1217 85.2421C58.9066 85.0709 58.6399 84.9754 58.3642 84.9694C57.6658 85.0179 57.128 85.6026 57.1371 86.3026C57.1356 86.6086 57.2552 86.9025 57.4704 87.1207C59.0353 88.5296 61.0472 89.3401 63.1515 89.4083V91.0747C63.1515 91.0853 63.153 91.096 63.153 91.1066C63.1773 91.6247 63.6181 92.0246 64.1362 91.9989C64.6468 91.9989 65.0604 91.5853 65.0604 91.0747V89.378C69.1963 89.1053 70.8627 86.5904 70.8627 83.9241C70.8628 80.3487 67.8632 79.2579 65.0605 78.5004ZM63.1516 78.0156C61.5003 77.5308 60.2126 77.0309 60.2126 75.622C60.2126 74.213 61.3791 73.198 63.1516 73.0617V78.0156ZM65.0605 87.0449V81.5304C66.7724 82.0152 68.1056 82.6666 68.0904 84.2573C68.0904 85.4087 67.3026 86.7722 65.0605 87.0449Z" fill="#161C24"/>
</g>
<g clip-path="url(#clip4)">
<path d="M97.0605 46.5004V41.1677C98.2012 41.3601 99.2769 41.8282 100.196 42.5312C100.38 42.6569 100.595 42.7251 100.818 42.7281C101.531 42.7281 102.113 42.1539 102.12 41.4404C102.122 41.1344 102.002 40.8405 101.787 40.6223C100.459 39.4845 98.7921 38.8134 97.0453 38.7134V36.9258C97.0453 36.4152 96.6318 36.0016 96.1212 36.0016C96.1106 36.0001 96.1 36.0001 96.0894 36.0001C95.5712 35.9925 95.144 36.4061 95.1364 36.9258V38.6528C91.7277 38.8952 89.4098 41.0011 89.4098 43.8037C89.4098 47.2427 92.3337 48.1972 95.1364 48.9547V55.0146C93.6578 54.8161 92.264 54.2025 91.1217 53.2421C90.9066 53.0709 90.6399 52.9754 90.3642 52.9694C89.6658 53.0179 89.128 53.6026 89.1371 54.3026C89.1356 54.6086 89.2552 54.9025 89.4704 55.1207C91.0353 56.5296 93.0472 57.3401 95.1515 57.4083V59.0747C95.1515 59.0853 95.153 59.096 95.153 59.1066C95.1773 59.6247 95.6181 60.0246 96.1362 59.9989C96.6468 59.9989 97.0604 59.5853 97.0604 59.0747V57.378C101.196 57.1053 102.863 54.5904 102.863 51.9241C102.863 48.3487 99.8632 47.2579 97.0605 46.5004ZM95.1516 46.0156C93.5003 45.5308 92.2126 45.0309 92.2126 43.622C92.2126 42.213 93.3791 41.198 95.1516 41.0617V46.0156ZM97.0605 55.0449V49.5304C98.7724 50.0152 100.106 50.6666 100.09 52.2573C100.09 53.4087 99.3026 54.7722 97.0605 55.0449Z" fill="#161C24"/>
</g>
<g clip-path="url(#clip5)">
<path d="M97.0605 78.5004V73.1677C98.2012 73.3601 99.2769 73.8282 100.196 74.5312C100.38 74.6569 100.595 74.7251 100.818 74.7281C101.531 74.7281 102.113 74.1539 102.12 73.4404C102.122 73.1344 102.002 72.8405 101.787 72.6223C100.459 71.4845 98.7921 70.8134 97.0453 70.7134V68.9258C97.0453 68.4152 96.6318 68.0016 96.1212 68.0016C96.1106 68.0001 96.1 68.0001 96.0894 68.0001C95.5712 67.9925 95.144 68.4061 95.1364 68.9258V70.6528C91.7277 70.8952 89.4098 73.0011 89.4098 75.8037C89.4098 79.2427 92.3337 80.1972 95.1364 80.9547V87.0146C93.6578 86.8161 92.264 86.2025 91.1217 85.2421C90.9066 85.0709 90.6399 84.9754 90.3642 84.9694C89.6658 85.0179 89.128 85.6026 89.1371 86.3026C89.1356 86.6086 89.2552 86.9025 89.4704 87.1207C91.0353 88.5296 93.0472 89.3401 95.1515 89.4083V91.0747C95.1515 91.0853 95.153 91.096 95.153 91.1066C95.1773 91.6247 95.6181 92.0246 96.1362 91.9989C96.6468 91.9989 97.0604 91.5853 97.0604 91.0747V89.378C101.196 89.1053 102.863 86.5904 102.863 83.9241C102.863 80.3487 99.8632 79.2579 97.0605 78.5004ZM95.1516 78.0156C93.5003 77.5308 92.2126 77.0309 92.2126 75.622C92.2126 74.213 93.3791 73.198 95.1516 73.0617V78.0156ZM97.0605 87.0449V81.5304C98.7724 82.0152 100.106 82.6666 100.09 84.2573C100.09 85.4087 99.3026 86.7722 97.0605 87.0449Z" fill="#161C24"/>
</g>
<circle cx="196" cy="64" r="52" fill="#00D3E3"/>
<g clip-path="url(#clip6)">
<path d="M181.06 46.5004V41.1677C182.201 41.3601 183.277 41.8282 184.196 42.5312C184.38 42.6569 184.595 42.7251 184.818 42.7281C185.531 42.7281 186.113 42.1539 186.12 41.4404C186.122 41.1344 186.002 40.8405 185.787 40.6223C184.459 39.4845 182.792 38.8134 181.045 38.7134V36.9258C181.045 36.4152 180.632 36.0016 180.121 36.0016C180.111 36.0001 180.1 36.0001 180.089 36.0001C179.571 35.9925 179.144 36.4061 179.136 36.9258V38.6528C175.728 38.8952 173.41 41.0011 173.41 43.8037C173.41 47.2427 176.334 48.1972 179.136 48.9547V55.0146C177.658 54.8161 176.264 54.2025 175.122 53.2421C174.907 53.0709 174.64 52.9754 174.364 52.9694C173.666 53.0179 173.128 53.6026 173.137 54.3026C173.136 54.6086 173.255 54.9025 173.47 55.1207C175.035 56.5296 177.047 57.3401 179.152 57.4083V59.0747C179.152 59.0853 179.153 59.096 179.153 59.1066C179.177 59.6247 179.618 60.0246 180.136 59.9989C180.647 59.9989 181.06 59.5853 181.06 59.0747V57.378C185.196 57.1053 186.863 54.5904 186.863 51.9241C186.863 48.3487 183.863 47.2579 181.06 46.5004ZM179.152 46.0156C177.5 45.5308 176.213 45.0309 176.213 43.622C176.213 42.213 177.379 41.198 179.152 41.0617V46.0156ZM181.06 55.0449V49.5304C182.772 50.0152 184.106 50.6666 184.09 52.2573C184.09 53.4087 183.303 54.7722 181.06 55.0449Z" fill="#161C24"/>
</g>
<g clip-path="url(#clip7)">
<path d="M181.06 78.5004V73.1677C182.201 73.3601 183.277 73.8282 184.196 74.5312C184.38 74.6569 184.595 74.7251 184.818 74.7281C185.531 74.7281 186.113 74.1539 186.12 73.4404C186.122 73.1344 186.002 72.8405 185.787 72.6223C184.459 71.4845 182.792 70.8134 181.045 70.7134V68.9258C181.045 68.4152 180.632 68.0016 180.121 68.0016C180.111 68.0001 180.1 68.0001 180.089 68.0001C179.571 67.9925 179.144 68.4061 179.136 68.9258V70.6528C175.728 70.8952 173.41 73.0011 173.41 75.8037C173.41 79.2427 176.334 80.1972 179.136 80.9547V87.0146C177.658 86.8161 176.264 86.2025 175.122 85.2421C174.907 85.0709 174.64 84.9754 174.364 84.9694C173.666 85.0179 173.128 85.6026 173.137 86.3026C173.136 86.6086 173.255 86.9025 173.47 87.1207C175.035 88.5296 177.047 89.3401 179.152 89.4083V91.0747C179.152 91.0853 179.153 91.096 179.153 91.1066C179.177 91.6247 179.618 92.0246 180.136 91.9989C180.647 91.9989 181.06 91.5853 181.06 91.0747V89.378C185.196 89.1053 186.863 86.5904 186.863 83.9241C186.863 80.3487 183.863 79.2579 181.06 78.5004ZM179.152 78.0156C177.5 77.5308 176.213 77.0309 176.213 75.622C176.213 74.213 177.379 73.198 179.152 73.0617V78.0156ZM181.06 87.0449V81.5304C182.772 82.0152 184.106 82.6666 184.09 84.2573C184.09 85.4087 183.303 86.7722 181.06 87.0449Z" fill="#161C24"/>
</g>
<g clip-path="url(#clip8)">
<path d="M213.06 46.5004V41.1677C214.201 41.3601 215.277 41.8282 216.196 42.5312C216.38 42.6569 216.595 42.7251 216.818 42.7281C217.531 42.7281 218.113 42.1539 218.12 41.4404C218.122 41.1344 218.002 40.8405 217.787 40.6223C216.459 39.4845 214.792 38.8134 213.045 38.7134V36.9258C213.045 36.4152 212.632 36.0016 212.121 36.0016C212.111 36.0001 212.1 36.0001 212.089 36.0001C211.571 35.9925 211.144 36.4061 211.136 36.9258V38.6528C207.728 38.8952 205.41 41.0011 205.41 43.8037C205.41 47.2427 208.334 48.1972 211.136 48.9547V55.0146C209.658 54.8161 208.264 54.2025 207.122 53.2421C206.907 53.0709 206.64 52.9754 206.364 52.9694C205.666 53.0179 205.128 53.6026 205.137 54.3026C205.136 54.6086 205.255 54.9025 205.47 55.1207C207.035 56.5296 209.047 57.3401 211.152 57.4083V59.0747C211.152 59.0853 211.153 59.096 211.153 59.1066C211.177 59.6247 211.618 60.0246 212.136 59.9989C212.647 59.9989 213.06 59.5853 213.06 59.0747V57.378C217.196 57.1053 218.863 54.5904 218.863 51.9241C218.863 48.3487 215.863 47.2579 213.06 46.5004ZM211.152 46.0156C209.5 45.5308 208.213 45.0309 208.213 43.622C208.213 42.213 209.379 41.198 211.152 41.0617V46.0156ZM213.06 55.0449V49.5304C214.772 50.0152 216.106 50.6666 216.09 52.2573C216.09 53.4087 215.303 54.7722 213.06 55.0449Z" fill="#161C24"/>
</g>
<g clip-path="url(#clip9)">
<path d="M213.06 78.5004V73.1677C214.201 73.3601 215.277 73.8282 216.196 74.5312C216.38 74.6569 216.595 74.7251 216.818 74.7281C217.531 74.7281 218.113 74.1539 218.12 73.4404C218.122 73.1344 218.002 72.8405 217.787 72.6223C216.459 71.4845 214.792 70.8134 213.045 70.7134V68.9258C213.045 68.4152 212.632 68.0016 212.121 68.0016C212.111 68.0001 212.1 68.0001 212.089 68.0001C211.571 67.9925 211.144 68.4061 211.136 68.9258V70.6528C207.728 70.8952 205.41 73.0011 205.41 75.8037C205.41 79.2427 208.334 80.1972 211.136 80.9547V87.0146C209.658 86.8161 208.264 86.2025 207.122 85.2421C206.907 85.0709 206.64 84.9754 206.364 84.9694C205.666 85.0179 205.128 85.6026 205.137 86.3026C205.136 86.6086 205.255 86.9025 205.47 87.1207C207.035 88.5296 209.047 89.3401 211.152 89.4083V91.0747C211.152 91.0853 211.153 91.096 211.153 91.1066C211.177 91.6247 211.618 92.0246 212.136 91.9989C212.647 91.9989 213.06 91.5853 213.06 91.0747V89.378C217.196 89.1053 218.863 86.5904 218.863 83.9241C218.863 80.3487 215.863 79.2579 213.06 78.5004ZM211.152 78.0156C209.5 77.5308 208.213 77.0309 208.213 75.622C208.213 74.213 209.379 73.198 211.152 73.0617V78.0156ZM213.06 87.0449V81.5304C214.772 82.0152 216.106 82.6666 216.09 84.2573C216.09 85.4087 215.303 86.7722 213.06 87.0449Z" fill="#161C24"/>
</g>
<circle cx="326" cy="215" r="52" fill="#00D3E3"/>
<g clip-path="url(#clip10)">
<path d="M311.06 197.5V192.168C312.201 192.36 313.277 192.828 314.196 193.531C314.38 193.657 314.595 193.725 314.818 193.728C315.531 193.728 316.113 193.154 316.12 192.44C316.122 192.134 316.002 191.84 315.787 191.622C314.459 190.485 312.792 189.813 311.045 189.713V187.926C311.045 187.415 310.632 187.002 310.121 187.002C310.111 187 310.1 187 310.089 187C309.571 186.993 309.144 187.406 309.136 187.926V189.653C305.728 189.895 303.41 192.001 303.41 194.804C303.41 198.243 306.334 199.197 309.136 199.955V206.015C307.658 205.816 306.264 205.203 305.122 204.242C304.907 204.071 304.64 203.975 304.364 203.969C303.666 204.018 303.128 204.603 303.137 205.303C303.136 205.609 303.255 205.902 303.47 206.121C305.035 207.53 307.047 208.34 309.152 208.408V210.075C309.152 210.085 309.153 210.096 309.153 210.107C309.177 210.625 309.618 211.025 310.136 210.999C310.647 210.999 311.06 210.585 311.06 210.075V208.378C315.196 208.105 316.863 205.59 316.863 202.924C316.863 199.349 313.863 198.258 311.06 197.5ZM309.152 197.016C307.5 196.531 306.213 196.031 306.213 194.622C306.213 193.213 307.379 192.198 309.152 192.062V197.016ZM311.06 206.045V200.53C312.772 201.015 314.106 201.667 314.09 203.257C314.09 204.409 313.303 205.772 311.06 206.045Z" fill="#161C24"/>
</g>
<g clip-path="url(#clip11)">
<path d="M311.06 229.5V224.168C312.201 224.36 313.277 224.828 314.196 225.531C314.38 225.657 314.595 225.725 314.818 225.728C315.531 225.728 316.113 225.154 316.12 224.44C316.122 224.134 316.002 223.84 315.787 223.622C314.459 222.485 312.792 221.813 311.045 221.713V219.926C311.045 219.415 310.632 219.002 310.121 219.002C310.111 219 310.1 219 310.089 219C309.571 218.993 309.144 219.406 309.136 219.926V221.653C305.728 221.895 303.41 224.001 303.41 226.804C303.41 230.243 306.334 231.197 309.136 231.955V238.015C307.658 237.816 306.264 237.203 305.122 236.242C304.907 236.071 304.64 235.975 304.364 235.969C303.666 236.018 303.128 236.603 303.137 237.303C303.136 237.609 303.255 237.902 303.47 238.121C305.035 239.53 307.047 240.34 309.152 240.408V242.075C309.152 242.085 309.153 242.096 309.153 242.107C309.177 242.625 309.618 243.025 310.136 242.999C310.647 242.999 311.06 242.585 311.06 242.075V240.378C315.196 240.105 316.863 237.59 316.863 234.924C316.863 231.349 313.863 230.258 311.06 229.5ZM309.152 229.016C307.5 228.531 306.213 228.031 306.213 226.622C306.213 225.213 307.379 224.198 309.152 224.062V229.016ZM311.06 238.045V232.53C312.772 233.015 314.106 233.667 314.09 235.257C314.09 236.409 313.303 237.772 311.06 238.045Z" fill="#161C24"/>
</g>
<g clip-path="url(#clip12)">
<path d="M343.06 197.5V192.168C344.201 192.36 345.277 192.828 346.196 193.531C346.38 193.657 346.595 193.725 346.818 193.728C347.531 193.728 348.113 193.154 348.12 192.44C348.122 192.134 348.002 191.84 347.787 191.622C346.459 190.485 344.792 189.813 343.045 189.713V187.926C343.045 187.415 342.632 187.002 342.121 187.002C342.111 187 342.1 187 342.089 187C341.571 186.993 341.144 187.406 341.136 187.926V189.653C337.728 189.895 335.41 192.001 335.41 194.804C335.41 198.243 338.334 199.197 341.136 199.955V206.015C339.658 205.816 338.264 205.203 337.122 204.242C336.907 204.071 336.64 203.975 336.364 203.969C335.666 204.018 335.128 204.603 335.137 205.303C335.136 205.609 335.255 205.902 335.47 206.121C337.035 207.53 339.047 208.34 341.152 208.408V210.075C341.152 210.085 341.153 210.096 341.153 210.107C341.177 210.625 341.618 211.025 342.136 210.999C342.647 210.999 343.06 210.585 343.06 210.075V208.378C347.196 208.105 348.863 205.59 348.863 202.924C348.863 199.349 345.863 198.258 343.06 197.5ZM341.152 197.016C339.5 196.531 338.213 196.031 338.213 194.622C338.213 193.213 339.379 192.198 341.152 192.062V197.016ZM343.06 206.045V200.53C344.772 201.015 346.106 201.667 346.09 203.257C346.09 204.409 345.303 205.772 343.06 206.045Z" fill="#161C24"/>
</g>
<g clip-path="url(#clip13)">
<path d="M343.06 229.5V224.168C344.201 224.36 345.277 224.828 346.196 225.531C346.38 225.657 346.595 225.725 346.818 225.728C347.531 225.728 348.113 225.154 348.12 224.44C348.122 224.134 348.002 223.84 347.787 223.622C346.459 222.485 344.792 221.813 343.045 221.713V219.926C343.045 219.415 342.632 219.002 342.121 219.002C342.111 219 342.1 219 342.089 219C341.571 218.993 341.144 219.406 341.136 219.926V221.653C337.728 221.895 335.41 224.001 335.41 226.804C335.41 230.243 338.334 231.197 341.136 231.955V238.015C339.658 237.816 338.264 237.203 337.122 236.242C336.907 236.071 336.64 235.975 336.364 235.969C335.666 236.018 335.128 236.603 335.137 237.303C335.136 237.609 335.255 237.902 335.47 238.121C337.035 239.53 339.047 240.34 341.152 240.408V242.075C341.152 242.085 341.153 242.096 341.153 242.107C341.177 242.625 341.618 243.025 342.136 242.999C342.647 242.999 343.06 242.585 343.06 242.075V240.378C347.196 240.105 348.863 237.59 348.863 234.924C348.863 231.349 345.863 230.258 343.06 229.5ZM341.152 229.016C339.5 228.531 338.213 228.031 338.213 226.622C338.213 225.213 339.379 224.198 341.152 224.062V229.016ZM343.06 238.045V232.53C344.772 233.015 346.106 233.667 346.09 235.257C346.09 236.409 345.303 237.772 343.06 238.045Z" fill="#161C24"/>
</g>
<circle cx="455" cy="215" r="52" fill="#00D3E3"/>
<g clip-path="url(#clip14)">
<path d="M440.06 197.5V192.168C441.201 192.36 442.277 192.828 443.196 193.531C443.38 193.657 443.595 193.725 443.818 193.728C444.531 193.728 445.113 193.154 445.12 192.44C445.122 192.134 445.002 191.84 444.787 191.622C443.459 190.485 441.792 189.813 440.045 189.713V187.926C440.045 187.415 439.632 187.002 439.121 187.002C439.111 187 439.1 187 439.089 187C438.571 186.993 438.144 187.406 438.136 187.926V189.653C434.728 189.895 432.41 192.001 432.41 194.804C432.41 198.243 435.334 199.197 438.136 199.955V206.015C436.658 205.816 435.264 205.203 434.122 204.242C433.907 204.071 433.64 203.975 433.364 203.969C432.666 204.018 432.128 204.603 432.137 205.303C432.136 205.609 432.255 205.902 432.47 206.121C434.035 207.53 436.047 208.34 438.152 208.408V210.075C438.152 210.085 438.153 210.096 438.153 210.107C438.177 210.625 438.618 211.025 439.136 210.999C439.647 210.999 440.06 210.585 440.06 210.075V208.378C444.196 208.105 445.863 205.59 445.863 202.924C445.863 199.349 442.863 198.258 440.06 197.5ZM438.152 197.016C436.5 196.531 435.213 196.031 435.213 194.622C435.213 193.213 436.379 192.198 438.152 192.062V197.016ZM440.06 206.045V200.53C441.772 201.015 443.106 201.667 443.09 203.257C443.09 204.409 442.303 205.772 440.06 206.045Z" fill="#161C24"/>
</g>
<g clip-path="url(#clip15)">
<path d="M440.06 229.5V224.168C441.201 224.36 442.277 224.828 443.196 225.531C443.38 225.657 443.595 225.725 443.818 225.728C444.531 225.728 445.113 225.154 445.12 224.44C445.122 224.134 445.002 223.84 444.787 223.622C443.459 222.485 441.792 221.813 440.045 221.713V219.926C440.045 219.415 439.632 219.002 439.121 219.002C439.111 219 439.1 219 439.089 219C438.571 218.993 438.144 219.406 438.136 219.926V221.653C434.728 221.895 432.41 224.001 432.41 226.804C432.41 230.243 435.334 231.197 438.136 231.955V238.015C436.658 237.816 435.264 237.203 434.122 236.242C433.907 236.071 433.64 235.975 433.364 235.969C432.666 236.018 432.128 236.603 432.137 237.303C432.136 237.609 432.255 237.902 432.47 238.121C434.035 239.53 436.047 240.34 438.152 240.408V242.075C438.152 242.085 438.153 242.096 438.153 242.107C438.177 242.625 438.618 243.025 439.136 242.999C439.647 242.999 440.06 242.585 440.06 242.075V240.378C444.196 240.105 445.863 237.59 445.863 234.924C445.863 231.349 442.863 230.258 440.06 229.5ZM438.152 229.016C436.5 228.531 435.213 228.031 435.213 226.622C435.213 225.213 436.379 224.198 438.152 224.062V229.016ZM440.06 238.045V232.53C441.772 233.015 443.106 233.667 443.09 235.257C443.09 236.409 442.303 237.772 440.06 238.045Z" fill="#161C24"/>
</g>
<g clip-path="url(#clip16)">
<path d="M472.06 197.5V192.168C473.201 192.36 474.277 192.828 475.196 193.531C475.38 193.657 475.595 193.725 475.818 193.728C476.531 193.728 477.113 193.154 477.12 192.44C477.122 192.134 477.002 191.84 476.787 191.622C475.459 190.485 473.792 189.813 472.045 189.713V187.926C472.045 187.415 471.632 187.002 471.121 187.002C471.111 187 471.1 187 471.089 187C470.571 186.993 470.144 187.406 470.136 187.926V189.653C466.728 189.895 464.41 192.001 464.41 194.804C464.41 198.243 467.334 199.197 470.136 199.955V206.015C468.658 205.816 467.264 205.203 466.122 204.242C465.907 204.071 465.64 203.975 465.364 203.969C464.666 204.018 464.128 204.603 464.137 205.303C464.136 205.609 464.255 205.902 464.47 206.121C466.035 207.53 468.047 208.34 470.152 208.408V210.075C470.152 210.085 470.153 210.096 470.153 210.107C470.177 210.625 470.618 211.025 471.136 210.999C471.647 210.999 472.06 210.585 472.06 210.075V208.378C476.196 208.105 477.863 205.59 477.863 202.924C477.863 199.349 474.863 198.258 472.06 197.5ZM470.152 197.016C468.5 196.531 467.213 196.031 467.213 194.622C467.213 193.213 468.379 192.198 470.152 192.062V197.016ZM472.06 206.045V200.53C473.772 201.015 475.106 201.667 475.09 203.257C475.09 204.409 474.303 205.772 472.06 206.045Z" fill="#161C24"/>
</g>
<g clip-path="url(#clip17)">
<path d="M472.06 229.5V224.168C473.201 224.36 474.277 224.828 475.196 225.531C475.38 225.657 475.595 225.725 475.818 225.728C476.531 225.728 477.113 225.154 477.12 224.44C477.122 224.134 477.002 223.84 476.787 223.622C475.459 222.485 473.792 221.813 472.045 221.713V219.926C472.045 219.415 471.632 219.002 471.121 219.002C471.111 219 471.1 219 471.089 219C470.571 218.993 470.144 219.406 470.136 219.926V221.653C466.728 221.895 464.41 224.001 464.41 226.804C464.41 230.243 467.334 231.197 470.136 231.955V238.015C468.658 237.816 467.264 237.203 466.122 236.242C465.907 236.071 465.64 235.975 465.364 235.969C464.666 236.018 464.128 236.603 464.137 237.303C464.136 237.609 464.255 237.902 464.47 238.121C466.035 239.53 468.047 240.34 470.152 240.408V242.075C470.152 242.085 470.153 242.096 470.153 242.107C470.177 242.625 470.618 243.025 471.136 242.999C471.647 242.999 472.06 242.585 472.06 242.075V240.378C476.196 240.105 477.863 237.59 477.863 234.924C477.863 231.349 474.863 230.258 472.06 229.5ZM470.152 229.016C468.5 228.531 467.213 228.031 467.213 226.622C467.213 225.213 468.379 224.198 470.152 224.062V229.016ZM472.06 238.045V232.53C473.772 233.015 475.106 233.667 475.09 235.257C475.09 236.409 474.303 237.772 472.06 238.045Z" fill="#161C24"/>
</g>
<circle cx="454" cy="64" r="44" fill="#00D3E3"/>
<g clip-path="url(#clip18)">
<path d="M439.06 62.5004V57.1677C440.201 57.3601 441.277 57.8282 442.196 58.5312C442.38 58.6569 442.595 58.7251 442.818 58.7281C443.531 58.7281 444.113 58.1539 444.12 57.4404C444.122 57.1344 444.002 56.8405 443.787 56.6223C442.459 55.4845 440.792 54.8134 439.045 54.7134V52.9258C439.045 52.4152 438.632 52.0016 438.121 52.0016C438.111 52.0001 438.1 52.0001 438.089 52.0001C437.571 51.9925 437.144 52.4061 437.136 52.9258V54.6528C433.728 54.8952 431.41 57.0011 431.41 59.8037C431.41 63.2427 434.334 64.1972 437.136 64.9547V71.0146C435.658 70.8161 434.264 70.2025 433.122 69.2421C432.907 69.0709 432.64 68.9754 432.364 68.9694C431.666 69.0179 431.128 69.6026 431.137 70.3026C431.136 70.6086 431.255 70.9025 431.47 71.1207C433.035 72.5296 435.047 73.3401 437.152 73.4083V75.0747C437.152 75.0853 437.153 75.096 437.153 75.1066C437.177 75.6247 437.618 76.0246 438.136 75.9989C438.647 75.9989 439.06 75.5853 439.06 75.0747V73.378C443.196 73.1053 444.863 70.5904 444.863 67.9241C444.863 64.3487 441.863 63.2579 439.06 62.5004ZM437.152 62.0156C435.5 61.5308 434.213 61.0309 434.213 59.622C434.213 58.213 435.379 57.198 437.152 57.0617V62.0156ZM439.06 71.0449V65.5304C440.772 66.0152 442.106 66.6666 442.09 68.2573C442.09 69.4087 441.303 70.7722 439.06 71.0449Z" fill="#161C24"/>
</g>
<g clip-path="url(#clip19)">
<path d="M471.06 62.5004V57.1677C472.201 57.3601 473.277 57.8282 474.196 58.5312C474.38 58.6569 474.595 58.7251 474.818 58.7281C475.531 58.7281 476.113 58.1539 476.12 57.4404C476.122 57.1344 476.002 56.8405 475.787 56.6223C474.459 55.4845 472.792 54.8134 471.045 54.7134V52.9258C471.045 52.4152 470.632 52.0016 470.121 52.0016C470.111 52.0001 470.1 52.0001 470.089 52.0001C469.571 51.9925 469.144 52.4061 469.136 52.9258V54.6528C465.728 54.8952 463.41 57.0011 463.41 59.8037C463.41 63.2427 466.334 64.1972 469.136 64.9547V71.0146C467.658 70.8161 466.264 70.2025 465.122 69.2421C464.907 69.0709 464.64 68.9754 464.364 68.9694C463.666 69.0179 463.128 69.6026 463.137 70.3026C463.136 70.6086 463.255 70.9025 463.47 71.1207C465.035 72.5296 467.047 73.3401 469.152 73.4083V75.0747C469.152 75.0853 469.153 75.096 469.153 75.1066C469.177 75.6247 469.618 76.0246 470.136 75.9989C470.647 75.9989 471.06 75.5853 471.06 75.0747V73.378C475.196 73.1053 476.863 70.5904 476.863 67.9241C476.863 64.3487 473.863 63.2579 471.06 62.5004ZM469.152 62.0156C467.5 61.5308 466.213 61.0309 466.213 59.622C466.213 58.213 467.379 57.198 469.152 57.0617V62.0156ZM471.06 71.0449V65.5304C472.772 66.0152 474.106 66.6666 474.09 68.2573C474.09 69.4087 473.303 70.7722 471.06 71.0449Z" fill="#161C24"/>
</g>
<circle cx="328" cy="64" r="64" fill="#00D3E3"/>
<g clip-path="url(#clip20)">
<path d="M313.06 46.5004V41.1677C314.201 41.3601 315.277 41.8282 316.196 42.5312C316.38 42.6569 316.595 42.7251 316.818 42.7281C317.531 42.7281 318.113 42.1539 318.12 41.4404C318.122 41.1344 318.002 40.8405 317.787 40.6223C316.459 39.4845 314.792 38.8134 313.045 38.7134V36.9258C313.045 36.4152 312.632 36.0016 312.121 36.0016C312.111 36.0001 312.1 36.0001 312.089 36.0001C311.571 35.9925 311.144 36.4061 311.136 36.9258V38.6528C307.728 38.8952 305.41 41.0011 305.41 43.8037C305.41 47.2427 308.334 48.1972 311.136 48.9547V55.0146C309.658 54.8161 308.264 54.2025 307.122 53.2421C306.907 53.0709 306.64 52.9754 306.364 52.9694C305.666 53.0179 305.128 53.6026 305.137 54.3026C305.136 54.6086 305.255 54.9025 305.47 55.1207C307.035 56.5296 309.047 57.3401 311.152 57.4083V59.0747C311.152 59.0853 311.153 59.096 311.153 59.1066C311.177 59.6247 311.618 60.0246 312.136 59.9989C312.647 59.9989 313.06 59.5853 313.06 59.0747V57.378C317.196 57.1053 318.863 54.5904 318.863 51.9241C318.863 48.3487 315.863 47.2579 313.06 46.5004ZM311.152 46.0156C309.5 45.5308 308.213 45.0309 308.213 43.622C308.213 42.213 309.379 41.198 311.152 41.0617V46.0156ZM313.06 55.0449V49.5304C314.772 50.0152 316.106 50.6666 316.09 52.2573C316.09 53.4087 315.303 54.7722 313.06 55.0449Z" fill="#161C24"/>
</g>
<g clip-path="url(#clip21)">
<path d="M297.06 78.5004V73.1677C298.201 73.3601 299.277 73.8282 300.196 74.5312C300.38 74.6569 300.595 74.7251 300.818 74.7281C301.531 74.7281 302.113 74.1539 302.12 73.4404C302.122 73.1344 302.002 72.8405 301.787 72.6223C300.459 71.4845 298.792 70.8134 297.045 70.7134V68.9258C297.045 68.4152 296.632 68.0016 296.121 68.0016C296.111 68.0001 296.1 68.0001 296.089 68.0001C295.571 67.9925 295.144 68.4061 295.136 68.9258V70.6528C291.728 70.8952 289.41 73.0011 289.41 75.8037C289.41 79.2427 292.334 80.1972 295.136 80.9547V87.0146C293.658 86.8161 292.264 86.2025 291.122 85.2421C290.907 85.0709 290.64 84.9754 290.364 84.9694C289.666 85.0179 289.128 85.6026 289.137 86.3026C289.136 86.6086 289.255 86.9025 289.47 87.1207C291.035 88.5296 293.047 89.3401 295.152 89.4083V91.0747C295.152 91.0853 295.153 91.096 295.153 91.1066C295.177 91.6247 295.618 92.0246 296.136 91.9989C296.647 91.9989 297.06 91.5853 297.06 91.0747V89.378C301.196 89.1053 302.863 86.5904 302.863 83.9241C302.863 80.3487 299.863 79.2579 297.06 78.5004ZM295.152 78.0156C293.5 77.5308 292.213 77.0309 292.213 75.622C292.213 74.213 293.379 73.198 295.152 73.0617V78.0156ZM297.06 87.0449V81.5304C298.772 82.0152 300.106 82.6666 300.09 84.2573C300.09 85.4087 299.303 86.7722 297.06 87.0449Z" fill="#161C24"/>
</g>
<g clip-path="url(#clip22)">
<path d="M345.06 46.5004V41.1677C346.201 41.3601 347.277 41.8282 348.196 42.5312C348.38 42.6569 348.595 42.7251 348.818 42.7281C349.531 42.7281 350.113 42.1539 350.12 41.4404C350.122 41.1344 350.002 40.8405 349.787 40.6223C348.459 39.4845 346.792 38.8134 345.045 38.7134V36.9258C345.045 36.4152 344.632 36.0016 344.121 36.0016C344.111 36.0001 344.1 36.0001 344.089 36.0001C343.571 35.9925 343.144 36.4061 343.136 36.9258V38.6528C339.728 38.8952 337.41 41.0011 337.41 43.8037C337.41 47.2427 340.334 48.1972 343.136 48.9547V55.0146C341.658 54.8161 340.264 54.2025 339.122 53.2421C338.907 53.0709 338.64 52.9754 338.364 52.9694C337.666 53.0179 337.128 53.6026 337.137 54.3026C337.136 54.6086 337.255 54.9025 337.47 55.1207C339.035 56.5296 341.047 57.3401 343.152 57.4083V59.0747C343.152 59.0853 343.153 59.096 343.153 59.1066C343.177 59.6247 343.618 60.0246 344.136 59.9989C344.647 59.9989 345.06 59.5853 345.06 59.0747V57.378C349.196 57.1053 350.863 54.5904 350.863 51.9241C350.863 48.3487 347.863 47.2579 345.06 46.5004ZM343.152 46.0156C341.5 45.5308 340.213 45.0309 340.213 43.622C340.213 42.213 341.379 41.198 343.152 41.0617V46.0156ZM345.06 55.0449V49.5304C346.772 50.0152 348.106 50.6666 348.09 52.2573C348.09 53.4087 347.303 54.7722 345.06 55.0449Z" fill="#161C24"/>
</g>
<g clip-path="url(#clip23)">
<path d="M329.06 78.5004V73.1677C330.201 73.3601 331.277 73.8282 332.196 74.5312C332.38 74.6569 332.595 74.7251 332.818 74.7281C333.531 74.7281 334.113 74.1539 334.12 73.4404C334.122 73.1344 334.002 72.8405 333.787 72.6223C332.459 71.4845 330.792 70.8134 329.045 70.7134V68.9258C329.045 68.4152 328.632 68.0016 328.121 68.0016C328.111 68.0001 328.1 68.0001 328.089 68.0001C327.571 67.9925 327.144 68.4061 327.136 68.9258V70.6528C323.728 70.8952 321.41 73.0011 321.41 75.8037C321.41 79.2427 324.334 80.1972 327.136 80.9547V87.0146C325.658 86.8161 324.264 86.2025 323.122 85.2421C322.907 85.0709 322.64 84.9754 322.364 84.9694C321.666 85.0179 321.128 85.6026 321.137 86.3026C321.136 86.6086 321.255 86.9025 321.47 87.1207C323.035 88.5296 325.047 89.3401 327.152 89.4083V91.0747C327.152 91.0853 327.153 91.096 327.153 91.1066C327.177 91.6247 327.618 92.0246 328.136 91.9989C328.647 91.9989 329.06 91.5853 329.06 91.0747V89.378C333.196 89.1053 334.863 86.5904 334.863 83.9241C334.863 80.3487 331.863 79.2579 329.06 78.5004ZM327.152 78.0156C325.5 77.5308 324.213 77.0309 324.213 75.622C324.213 74.213 325.379 73.198 327.152 73.0617V78.0156ZM329.06 87.0449V81.5304C330.772 82.0152 332.106 82.6666 332.09 84.2573C332.09 85.4087 331.303 86.7722 329.06 87.0449Z" fill="#161C24"/>
</g>
<g clip-path="url(#clip24)">
<path d="M361.06 78.5004V73.1677C362.201 73.3601 363.277 73.8282 364.196 74.5312C364.38 74.6569 364.595 74.7251 364.818 74.7281C365.531 74.7281 366.113 74.1539 366.12 73.4404C366.122 73.1344 366.002 72.8405 365.787 72.6223C364.459 71.4845 362.792 70.8134 361.045 70.7134V68.9258C361.045 68.4152 360.632 68.0016 360.121 68.0016C360.111 68.0001 360.1 68.0001 360.089 68.0001C359.571 67.9925 359.144 68.4061 359.136 68.9258V70.6528C355.728 70.8952 353.41 73.0011 353.41 75.8037C353.41 79.2427 356.334 80.1972 359.136 80.9547V87.0146C357.658 86.8161 356.264 86.2025 355.122 85.2421C354.907 85.0709 354.64 84.9754 354.364 84.9694C353.666 85.0179 353.128 85.6026 353.137 86.3026C353.136 86.6086 353.255 86.9025 353.47 87.1207C355.035 88.5296 357.047 89.3401 359.152 89.4083V91.0747C359.152 91.0853 359.153 91.096 359.153 91.1066C359.177 91.6247 359.618 92.0246 360.136 91.9989C360.647 91.9989 361.06 91.5853 361.06 91.0747V89.378C365.196 89.1053 366.863 86.5904 366.863 83.9241C366.863 80.3487 363.863 79.2579 361.06 78.5004ZM359.152 78.0156C357.5 77.5308 356.213 77.0309 356.213 75.622C356.213 74.213 357.379 73.198 359.152 73.0617V78.0156ZM361.06 87.0449V81.5304C362.772 82.0152 364.106 82.6666 364.09 84.2573C364.09 85.4087 363.303 86.7722 361.06 87.0449Z" fill="#161C24"/>
</g>
<circle cx="64" cy="216" r="64" fill="#00D3E3"/>
<g clip-path="url(#clip25)">
<path d="M49.0605 198.5V193.168C50.2012 193.36 51.2769 193.828 52.1965 194.531C52.3798 194.657 52.5949 194.725 52.8176 194.728C53.5312 194.728 54.113 194.154 54.1205 193.44C54.122 193.134 54.0023 192.84 53.7872 192.622C52.4586 191.485 50.7921 190.813 49.0453 190.713V188.926C49.0453 188.415 48.6318 188.002 48.1212 188.002C48.1106 188 48.1 188 48.0894 188C47.5712 187.993 47.144 188.406 47.1364 188.926V190.653C43.7277 190.895 41.4098 193.001 41.4098 195.804C41.4098 199.243 44.3337 200.197 47.1364 200.955V207.015C45.6578 206.816 44.264 206.203 43.1217 205.242C42.9066 205.071 42.6399 204.975 42.3642 204.969C41.6658 205.018 41.128 205.603 41.1371 206.303C41.1356 206.609 41.2552 206.902 41.4704 207.121C43.0353 208.53 45.0472 209.34 47.1515 209.408V211.075C47.1515 211.085 47.153 211.096 47.153 211.107C47.1773 211.625 47.6181 212.025 48.1362 211.999C48.6468 211.999 49.0604 211.585 49.0604 211.075V209.378C53.1963 209.105 54.8627 206.59 54.8627 203.924C54.8628 200.349 51.8632 199.258 49.0605 198.5ZM47.1516 198.016C45.5003 197.531 44.2126 197.031 44.2126 195.622C44.2126 194.213 45.3791 193.198 47.1516 193.062V198.016ZM49.0605 207.045V201.53C50.7724 202.015 52.1056 202.667 52.0904 204.257C52.0904 205.409 51.3026 206.772 49.0605 207.045Z" fill="#161C24"/>
</g>
<g clip-path="url(#clip26)">
<path d="M33.0605 230.5V225.168C34.2012 225.36 35.2769 225.828 36.1965 226.531C36.3798 226.657 36.5949 226.725 36.8176 226.728C37.5312 226.728 38.113 226.154 38.1205 225.44C38.122 225.134 38.0023 224.84 37.7872 224.622C36.4586 223.485 34.7921 222.813 33.0453 222.713V220.926C33.0453 220.415 32.6318 220.002 32.1212 220.002C32.1106 220 32.1 220 32.0894 220C31.5712 219.993 31.144 220.406 31.1364 220.926V222.653C27.7277 222.895 25.4098 225.001 25.4098 227.804C25.4098 231.243 28.3337 232.197 31.1364 232.955V239.015C29.6578 238.816 28.264 238.203 27.1217 237.242C26.9066 237.071 26.6399 236.975 26.3642 236.969C25.6658 237.018 25.128 237.603 25.1371 238.303C25.1356 238.609 25.2552 238.902 25.4704 239.121C27.0353 240.53 29.0472 241.34 31.1515 241.408V243.075C31.1515 243.085 31.153 243.096 31.153 243.107C31.1773 243.625 31.6181 244.025 32.1362 243.999C32.6468 243.999 33.0604 243.585 33.0604 243.075V241.378C37.1963 241.105 38.8627 238.59 38.8627 235.924C38.8628 232.349 35.8632 231.258 33.0605 230.5ZM31.1516 230.016C29.5003 229.531 28.2126 229.031 28.2126 227.622C28.2126 226.213 29.3791 225.198 31.1516 225.062V230.016ZM33.0605 239.045V233.53C34.7724 234.015 36.1056 234.667 36.0904 236.257C36.0904 237.409 35.3026 238.772 33.0605 239.045Z" fill="#161C24"/>
</g>
<g clip-path="url(#clip27)">
<path d="M81.0605 198.5V193.168C82.2012 193.36 83.2769 193.828 84.1965 194.531C84.3798 194.657 84.5949 194.725 84.8176 194.728C85.5312 194.728 86.113 194.154 86.1205 193.44C86.122 193.134 86.0023 192.84 85.7872 192.622C84.4586 191.485 82.7921 190.813 81.0453 190.713V188.926C81.0453 188.415 80.6318 188.002 80.1212 188.002C80.1106 188 80.1 188 80.0894 188C79.5712 187.993 79.144 188.406 79.1364 188.926V190.653C75.7277 190.895 73.4098 193.001 73.4098 195.804C73.4098 199.243 76.3337 200.197 79.1364 200.955V207.015C77.6578 206.816 76.264 206.203 75.1217 205.242C74.9066 205.071 74.6399 204.975 74.3642 204.969C73.6658 205.018 73.128 205.603 73.1371 206.303C73.1356 206.609 73.2552 206.902 73.4704 207.121C75.0353 208.53 77.0472 209.34 79.1515 209.408V211.075C79.1515 211.085 79.153 211.096 79.153 211.107C79.1773 211.625 79.6181 212.025 80.1362 211.999C80.6468 211.999 81.0604 211.585 81.0604 211.075V209.378C85.1963 209.105 86.8627 206.59 86.8627 203.924C86.8628 200.349 83.8632 199.258 81.0605 198.5ZM79.1516 198.016C77.5003 197.531 76.2126 197.031 76.2126 195.622C76.2126 194.213 77.3791 193.198 79.1516 193.062V198.016ZM81.0605 207.045V201.53C82.7724 202.015 84.1056 202.667 84.0904 204.257C84.0904 205.409 83.3026 206.772 81.0605 207.045Z" fill="#161C24"/>
</g>
<g clip-path="url(#clip28)">
<path d="M65.0605 230.5V225.168C66.2012 225.36 67.2769 225.828 68.1965 226.531C68.3798 226.657 68.5949 226.725 68.8176 226.728C69.5312 226.728 70.113 226.154 70.1205 225.44C70.122 225.134 70.0023 224.84 69.7872 224.622C68.4586 223.485 66.7921 222.813 65.0453 222.713V220.926C65.0453 220.415 64.6318 220.002 64.1212 220.002C64.1106 220 64.1 220 64.0894 220C63.5712 219.993 63.144 220.406 63.1364 220.926V222.653C59.7277 222.895 57.4098 225.001 57.4098 227.804C57.4098 231.243 60.3337 232.197 63.1364 232.955V239.015C61.6578 238.816 60.264 238.203 59.1217 237.242C58.9066 237.071 58.6399 236.975 58.3642 236.969C57.6658 237.018 57.128 237.603 57.1371 238.303C57.1356 238.609 57.2552 238.902 57.4704 239.121C59.0353 240.53 61.0472 241.34 63.1515 241.408V243.075C63.1515 243.085 63.153 243.096 63.153 243.107C63.1773 243.625 63.6181 244.025 64.1362 243.999C64.6468 243.999 65.0604 243.585 65.0604 243.075V241.378C69.1963 241.105 70.8627 238.59 70.8627 235.924C70.8628 232.349 67.8632 231.258 65.0605 230.5ZM63.1516 230.016C61.5003 229.531 60.2126 229.031 60.2126 227.622C60.2126 226.213 61.3791 225.198 63.1516 225.062V230.016ZM65.0605 239.045V233.53C66.7724 234.015 68.1056 234.667 68.0904 236.257C68.0904 237.409 67.3026 238.772 65.0605 239.045Z" fill="#161C24"/>
</g>
<g clip-path="url(#clip29)">
<path d="M97.0605 230.5V225.168C98.2012 225.36 99.2769 225.828 100.196 226.531C100.38 226.657 100.595 226.725 100.818 226.728C101.531 226.728 102.113 226.154 102.12 225.44C102.122 225.134 102.002 224.84 101.787 224.622C100.459 223.485 98.7921 222.813 97.0453 222.713V220.926C97.0453 220.415 96.6318 220.002 96.1212 220.002C96.1106 220 96.1 220 96.0894 220C95.5712 219.993 95.144 220.406 95.1364 220.926V222.653C91.7277 222.895 89.4098 225.001 89.4098 227.804C89.4098 231.243 92.3337 232.197 95.1364 232.955V239.015C93.6578 238.816 92.264 238.203 91.1217 237.242C90.9066 237.071 90.6399 236.975 90.3642 236.969C89.6658 237.018 89.128 237.603 89.1371 238.303C89.1356 238.609 89.2552 238.902 89.4704 239.121C91.0353 240.53 93.0472 241.34 95.1515 241.408V243.075C95.1515 243.085 95.153 243.096 95.153 243.107C95.1773 243.625 95.6181 244.025 96.1362 243.999C96.6468 243.999 97.0604 243.585 97.0604 243.075V241.378C101.196 241.105 102.863 238.59 102.863 235.924C102.863 232.349 99.8632 231.258 97.0605 230.5ZM95.1516 230.016C93.5003 229.531 92.2126 229.031 92.2126 227.622C92.2126 226.213 93.3791 225.198 95.1516 225.062V230.016ZM97.0605 239.045V233.53C98.7724 234.015 100.106 234.667 100.09 236.257C100.09 237.409 99.3026 238.772 97.0605 239.045Z" fill="#161C24"/>
</g>
<circle cx="201" cy="215" r="48" fill="#00D3E3"/>
<g clip-path="url(#clip30)">
<path d="M186.06 197.5V192.168C187.201 192.36 188.277 192.828 189.196 193.531C189.38 193.657 189.595 193.725 189.818 193.728C190.531 193.728 191.113 193.154 191.12 192.44C191.122 192.134 191.002 191.84 190.787 191.622C189.459 190.485 187.792 189.813 186.045 189.713V187.926C186.045 187.415 185.632 187.002 185.121 187.002C185.111 187 185.1 187 185.089 187C184.571 186.993 184.144 187.406 184.136 187.926V189.653C180.728 189.895 178.41 192.001 178.41 194.804C178.41 198.243 181.334 199.197 184.136 199.955V206.015C182.658 205.816 181.264 205.203 180.122 204.242C179.907 204.071 179.64 203.975 179.364 203.969C178.666 204.018 178.128 204.603 178.137 205.303C178.136 205.609 178.255 205.902 178.47 206.121C180.035 207.53 182.047 208.34 184.152 208.408V210.075C184.152 210.085 184.153 210.096 184.153 210.107C184.177 210.625 184.618 211.025 185.136 210.999C185.647 210.999 186.06 210.585 186.06 210.075V208.378C190.196 208.105 191.863 205.59 191.863 202.924C191.863 199.349 188.863 198.258 186.06 197.5ZM184.152 197.016C182.5 196.531 181.213 196.031 181.213 194.622C181.213 193.213 182.379 192.198 184.152 192.062V197.016ZM186.06 206.045V200.53C187.772 201.015 189.106 201.667 189.09 203.257C189.09 204.409 188.303 205.772 186.06 206.045Z" fill="#161C24"/>
</g>
<g clip-path="url(#clip31)">
<path d="M218.06 197.5V192.168C219.201 192.36 220.277 192.828 221.196 193.531C221.38 193.657 221.595 193.725 221.818 193.728C222.531 193.728 223.113 193.154 223.12 192.44C223.122 192.134 223.002 191.84 222.787 191.622C221.459 190.485 219.792 189.813 218.045 189.713V187.926C218.045 187.415 217.632 187.002 217.121 187.002C217.111 187 217.1 187 217.089 187C216.571 186.993 216.144 187.406 216.136 187.926V189.653C212.728 189.895 210.41 192.001 210.41 194.804C210.41 198.243 213.334 199.197 216.136 199.955V206.015C214.658 205.816 213.264 205.203 212.122 204.242C211.907 204.071 211.64 203.975 211.364 203.969C210.666 204.018 210.128 204.603 210.137 205.303C210.136 205.609 210.255 205.902 210.47 206.121C212.035 207.53 214.047 208.34 216.152 208.408V210.075C216.152 210.085 216.153 210.096 216.153 210.107C216.177 210.625 216.618 211.025 217.136 210.999C217.647 210.999 218.06 210.585 218.06 210.075V208.378C222.196 208.105 223.863 205.59 223.863 202.924C223.863 199.349 220.863 198.258 218.06 197.5ZM216.152 197.016C214.5 196.531 213.213 196.031 213.213 194.622C213.213 193.213 214.379 192.198 216.152 192.062V197.016ZM218.06 206.045V200.53C219.772 201.015 221.106 201.667 221.09 203.257C221.09 204.409 220.303 205.772 218.06 206.045Z" fill="#161C24"/>
</g>
<g clip-path="url(#clip32)">
<path d="M202.06 229.5V224.168C203.201 224.36 204.277 224.828 205.196 225.531C205.38 225.657 205.595 225.725 205.818 225.728C206.531 225.728 207.113 225.154 207.12 224.44C207.122 224.134 207.002 223.84 206.787 223.622C205.459 222.485 203.792 221.813 202.045 221.713V219.926C202.045 219.415 201.632 219.002 201.121 219.002C201.111 219 201.1 219 201.089 219C200.571 218.993 200.144 219.406 200.136 219.926V221.653C196.728 221.895 194.41 224.001 194.41 226.804C194.41 230.243 197.334 231.197 200.136 231.955V238.015C198.658 237.816 197.264 237.203 196.122 236.242C195.907 236.071 195.64 235.975 195.364 235.969C194.666 236.018 194.128 236.603 194.137 237.303C194.136 237.609 194.255 237.902 194.47 238.121C196.035 239.53 198.047 240.34 200.152 240.408V242.075C200.152 242.085 200.153 242.096 200.153 242.107C200.177 242.625 200.618 243.025 201.136 242.999C201.647 242.999 202.06 242.585 202.06 242.075V240.378C206.196 240.105 207.863 237.59 207.863 234.924C207.863 231.349 204.863 230.258 202.06 229.5ZM200.152 229.016C198.5 228.531 197.213 228.031 197.213 226.622C197.213 225.213 198.379 224.198 200.152 224.062V229.016ZM202.06 238.045V232.53C203.772 233.015 205.106 233.667 205.09 235.257C205.09 236.409 204.303 237.772 202.06 238.045Z" fill="#161C24"/>
</g>
<defs>
<clipPath id="clip0">
<rect width="24" height="24" fill="white" transform="translate(20 36)"/>
</clipPath>
<clipPath id="clip1">
<rect width="24" height="24" fill="white" transform="translate(20 68)"/>
</clipPath>
<clipPath id="clip2">
<rect width="24" height="24" fill="white" transform="translate(52 36)"/>
</clipPath>
<clipPath id="clip3">
<rect width="24" height="24" fill="white" transform="translate(52 68)"/>
</clipPath>
<clipPath id="clip4">
<rect width="24" height="24" fill="white" transform="translate(84 36)"/>
</clipPath>
<clipPath id="clip5">
<rect width="24" height="24" fill="white" transform="translate(84 68)"/>
</clipPath>
<clipPath id="clip6">
<rect width="24" height="24" fill="white" transform="translate(168 36)"/>
</clipPath>
<clipPath id="clip7">
<rect width="24" height="24" fill="white" transform="translate(168 68)"/>
</clipPath>
<clipPath id="clip8">
<rect width="24" height="24" fill="white" transform="translate(200 36)"/>
</clipPath>
<clipPath id="clip9">
<rect width="24" height="24" fill="white" transform="translate(200 68)"/>
</clipPath>
<clipPath id="clip10">
<rect width="24" height="24" fill="white" transform="translate(298 187)"/>
</clipPath>
<clipPath id="clip11">
<rect width="24" height="24" fill="white" transform="translate(298 219)"/>
</clipPath>
<clipPath id="clip12">
<rect width="24" height="24" fill="white" transform="translate(330 187)"/>
</clipPath>
<clipPath id="clip13">
<rect width="24" height="24" fill="white" transform="translate(330 219)"/>
</clipPath>
<clipPath id="clip14">
<rect width="24" height="24" fill="white" transform="translate(427 187)"/>
</clipPath>
<clipPath id="clip15">
<rect width="24" height="24" fill="white" transform="translate(427 219)"/>
</clipPath>
<clipPath id="clip16">
<rect width="24" height="24" fill="white" transform="translate(459 187)"/>
</clipPath>
<clipPath id="clip17">
<rect width="24" height="24" fill="white" transform="translate(459 219)"/>
</clipPath>
<clipPath id="clip18">
<rect width="24" height="24" fill="white" transform="translate(426 52)"/>
</clipPath>
<clipPath id="clip19">
<rect width="24" height="24" fill="white" transform="translate(458 52)"/>
</clipPath>
<clipPath id="clip20">
<rect width="24" height="24" fill="white" transform="translate(300 36)"/>
</clipPath>
<clipPath id="clip21">
<rect width="24" height="24" fill="white" transform="translate(284 68)"/>
</clipPath>
<clipPath id="clip22">
<rect width="24" height="24" fill="white" transform="translate(332 36)"/>
</clipPath>
<clipPath id="clip23">
<rect width="24" height="24" fill="white" transform="translate(316 68)"/>
</clipPath>
<clipPath id="clip24">
<rect width="24" height="24" fill="white" transform="translate(348 68)"/>
</clipPath>
<clipPath id="clip25">
<rect width="24" height="24" fill="white" transform="translate(36 188)"/>
</clipPath>
<clipPath id="clip26">
<rect width="24" height="24" fill="white" transform="translate(20 220)"/>
</clipPath>
<clipPath id="clip27">
<rect width="24" height="24" fill="white" transform="translate(68 188)"/>
</clipPath>
<clipPath id="clip28">
<rect width="24" height="24" fill="white" transform="translate(52 220)"/>
</clipPath>
<clipPath id="clip29">
<rect width="24" height="24" fill="white" transform="translate(84 220)"/>
</clipPath>
<clipPath id="clip30">
<rect width="24" height="24" fill="white" transform="translate(173 187)"/>
</clipPath>
<clipPath id="clip31">
<rect width="24" height="24" fill="white" transform="translate(205 187)"/>
</clipPath>
<clipPath id="clip32">
<rect width="24" height="24" fill="white" transform="translate(189 219)"/>
</clipPath>
</defs>
</svg>
