<svg width="308" height="28" viewBox="0 0 308 28" fill="none" xmlns="http://www.w3.org/2000/svg">
<g clip-path="url(#clip0)">
<path d="M304 8C306.209 8 308 6.20914 308 4C308 1.79086 306.209 0 304 0L0 0V8L304 8Z" fill="url(#paint0_linear)"/>
<path d="M150 8C152.209 8 154 6.20914 154 4C154 1.79086 152.209 0 150 0L0 0V8L150 8Z" fill="url(#paint1_linear)"/>
</g>
<path d="M304 28C306.209 28 308 26.2091 308 24C308 21.7909 306.209 20 304 20L0 20V28L304 28Z" fill="#FF4842" fill-opacity="0.12"/>
<path d="M218 28C220.209 28 222 26.2091 222 24C222 21.7909 220.209 20 218 20L0 20V28L218 28Z" fill="url(#paint2_linear)"/>
<defs>
<linearGradient id="paint0_linear" x1="154" y1="12" x2="153.585" y2="-3.98921" gradientUnits="userSpaceOnUse">
<stop stop-color="#AAF27F"/>
<stop offset="1" stop-color="#54D62C"/>
</linearGradient>
<linearGradient id="paint1_linear" x1="77" y1="12" x2="76.1711" y2="-3.95694" gradientUnits="userSpaceOnUse">
<stop stop-color="#74CAFF"/>
<stop offset="1" stop-color="#0C53B7"/>
</linearGradient>
<linearGradient id="paint2_linear" x1="111" y1="32" x2="110.424" y2="16.0208" gradientUnits="userSpaceOnUse">
<stop stop-color="#FFA48D"/>
<stop offset="1" stop-color="#B72136"/>
</linearGradient>
<clipPath id="clip0">
<rect width="8" height="308" fill="white" transform="matrix(0 -1 -1 0 308 8)"/>
</clipPath>
</defs>
</svg>
