<svg width="113" height="175" viewBox="0 0 113 175" fill="none" xmlns="http://www.w3.org/2000/svg">
<path d="M112.002 42.1123V0L75.6016 17.4624C90.5926 20.212 103.812 29.1844 112.002 42.1123Z" fill="#00D3E3"/>
<path d="M103.187 56.9058C94.8102 43.7834 81.3489 34.7769 66.096 31.92C62.7549 31.2905 59.3653 31 56.0242 31C25.0826 31 0 56.0342 0 86.9758C0 117.917 25.0342 143 55.9758 143C86.9174 143 112 117.966 112 87.0242C112 76.3714 108.949 65.9122 103.187 56.9058Z" fill="white"/>
<path d="M0 132.888V175L36.4 157.538C21.4089 154.788 8.19 145.816 0 132.888Z" fill="#00D3E3"/>
<path d="M37.696 85.512C40.064 85.512 41.808 85.984 42.928 86.928C44.064 87.872 44.632 89.136 44.632 90.72C44.632 91.744 44.376 92.68 43.864 93.528C43.352 94.36 42.568 95.032 41.512 95.544C40.472 96.04 39.184 96.288 37.648 96.288C36.464 96.288 35.296 96.136 34.144 95.832C33.008 95.512 32.04 95.064 31.24 94.488L32.776 91.512C33.416 91.992 34.152 92.368 34.984 92.64C35.816 92.896 36.672 93.024 37.552 93.024C38.528 93.024 39.296 92.832 39.856 92.448C40.416 92.064 40.696 91.528 40.696 90.84C40.696 90.12 40.4 89.576 39.808 89.208C39.232 88.84 38.224 88.656 36.784 88.656H32.488L33.352 79.2H43.6V82.32H36.592L36.328 85.512H37.696ZM51.8523 85.512C54.2203 85.512 55.9643 85.984 57.0843 86.928C58.2203 87.872 58.7883 89.136 58.7883 90.72C58.7883 91.744 58.5323 92.68 58.0203 93.528C57.5083 94.36 56.7243 95.032 55.6683 95.544C54.6283 96.04 53.3403 96.288 51.8043 96.288C50.6203 96.288 49.4523 96.136 48.3003 95.832C47.1643 95.512 46.1963 95.064 45.3963 94.488L46.9323 91.512C47.5723 91.992 48.3083 92.368 49.1403 92.64C49.9723 92.896 50.8283 93.024 51.7083 93.024C52.6843 93.024 53.4523 92.832 54.0123 92.448C54.5723 92.064 54.8523 91.528 54.8523 90.84C54.8523 90.12 54.5563 89.576 53.9643 89.208C53.3883 88.84 52.3803 88.656 50.9403 88.656H46.6443L47.5083 79.2H57.7563V82.32H50.7483L50.4843 85.512H51.8523ZM64.0193 88.272C62.7873 88.272 61.7793 87.856 60.9953 87.024C60.2273 86.176 59.8433 85.048 59.8433 83.64C59.8433 82.232 60.2273 81.112 60.9953 80.28C61.7793 79.432 62.7873 79.008 64.0193 79.008C65.2513 79.008 66.2513 79.432 67.0193 80.28C67.7873 81.112 68.1713 82.232 68.1713 83.64C68.1713 85.048 67.7873 86.176 67.0193 87.024C66.2513 87.856 65.2513 88.272 64.0193 88.272ZM74.0273 79.2H76.8833L65.4113 96H62.5553L74.0273 79.2ZM64.0193 86.304C64.5633 86.304 64.9873 86.08 65.2913 85.632C65.6113 85.184 65.7713 84.52 65.7713 83.64C65.7713 82.76 65.6113 82.096 65.2913 81.648C64.9873 81.2 64.5633 80.976 64.0193 80.976C63.4913 80.976 63.0673 81.208 62.7473 81.672C62.4273 82.12 62.2673 82.776 62.2673 83.64C62.2673 84.504 62.4273 85.168 62.7473 85.632C63.0673 86.08 63.4913 86.304 64.0193 86.304ZM75.4193 96.192C74.6193 96.192 73.8993 96.008 73.2593 95.64C72.6353 95.256 72.1473 94.712 71.7953 94.008C71.4433 93.304 71.2673 92.488 71.2673 91.56C71.2673 90.632 71.4433 89.816 71.7953 89.112C72.1473 88.408 72.6353 87.872 73.2593 87.504C73.8993 87.12 74.6193 86.928 75.4193 86.928C76.6513 86.928 77.6513 87.352 78.4193 88.2C79.2033 89.032 79.5953 90.152 79.5953 91.56C79.5953 92.968 79.2033 94.096 78.4193 94.944C77.6513 95.776 76.6513 96.192 75.4193 96.192ZM75.4193 94.224C75.9633 94.224 76.3873 94 76.6913 93.552C77.0113 93.088 77.1713 92.424 77.1713 91.56C77.1713 90.696 77.0113 90.04 76.6913 89.592C76.3873 89.128 75.9633 88.896 75.4193 88.896C74.8913 88.896 74.4673 89.12 74.1473 89.568C73.8273 90.016 73.6673 90.68 73.6673 91.56C73.6673 92.44 73.8273 93.104 74.1473 93.552C74.4673 94 74.8913 94.224 75.4193 94.224Z" fill="#212B36"/>
</svg>
