<svg width="113" height="175" viewBox="0 0 113 175" fill="none" xmlns="http://www.w3.org/2000/svg">
<path d="M112.002 42.1123V0L75.6016 17.4624C90.5926 20.212 103.812 29.1844 112.002 42.1123Z" fill="#00D3E3"/>
<path d="M103.187 56.9058C94.8102 43.7834 81.3489 34.7769 66.096 31.92C62.7549 31.2905 59.3653 31 56.0242 31C25.0826 31 0 56.0342 0 86.9758C0 117.917 25.0342 143 55.9758 143C86.9174 143 112 117.966 112 87.0242C112 76.3714 108.949 65.9122 103.187 56.9058Z" fill="white"/>
<path d="M0 132.888V175L36.4 157.538C21.4089 154.788 8.19 145.816 0 132.888Z" fill="#00D3E3"/>
<path d="M45.32 92.472H42.584V96H38.792V92.472H29.744V89.856L37.664 79.2H41.744L34.4 89.304H38.912V86.16H42.584V89.304H45.32V92.472ZM58.2133 87.168C59.0453 87.584 59.6773 88.128 60.1093 88.8C60.5573 89.472 60.7812 90.248 60.7812 91.128C60.7812 92.168 60.4852 93.08 59.8932 93.864C59.3012 94.632 58.4693 95.232 57.3973 95.664C56.3253 96.08 55.0853 96.288 53.6773 96.288C52.2693 96.288 51.0293 96.08 49.9573 95.664C48.9013 95.232 48.0773 94.632 47.4853 93.864C46.9093 93.08 46.6213 92.168 46.6213 91.128C46.6213 90.248 46.8373 89.472 47.2693 88.8C47.7173 88.128 48.3493 87.584 49.1653 87.168C48.5413 86.784 48.0613 86.304 47.7253 85.728C47.3893 85.136 47.2213 84.464 47.2213 83.712C47.2213 82.736 47.4933 81.888 48.0373 81.168C48.5813 80.448 49.3413 79.896 50.3173 79.512C51.2933 79.112 52.4133 78.912 53.6773 78.912C54.9573 78.912 56.0853 79.112 57.0613 79.512C58.0533 79.896 58.8213 80.448 59.3653 81.168C59.9093 81.888 60.1813 82.736 60.1813 83.712C60.1813 84.464 60.0133 85.136 59.6773 85.728C59.3413 86.304 58.8533 86.784 58.2133 87.168ZM53.6773 81.768C52.8933 81.768 52.2613 81.96 51.7812 82.344C51.3173 82.712 51.0853 83.224 51.0853 83.88C51.0853 84.52 51.3173 85.024 51.7812 85.392C52.2453 85.76 52.8773 85.944 53.6773 85.944C54.4773 85.944 55.1173 85.76 55.5973 85.392C56.0773 85.024 56.3173 84.52 56.3173 83.88C56.3173 83.224 56.0773 82.712 55.5973 82.344C55.1173 81.96 54.4773 81.768 53.6773 81.768ZM53.6773 93.432C54.6533 93.432 55.4213 93.216 55.9813 92.784C56.5573 92.336 56.8453 91.744 56.8453 91.008C56.8453 90.272 56.5573 89.688 55.9813 89.256C55.4213 88.824 54.6533 88.608 53.6773 88.608C52.7173 88.608 51.9573 88.824 51.3973 89.256C50.8373 89.688 50.5573 90.272 50.5573 91.008C50.5573 91.76 50.8373 92.352 51.3973 92.784C51.9573 93.216 52.7173 93.432 53.6773 93.432ZM66.2146 88.272C64.9826 88.272 63.9746 87.856 63.1906 87.024C62.4226 86.176 62.0386 85.048 62.0386 83.64C62.0386 82.232 62.4226 81.112 63.1906 80.28C63.9746 79.432 64.9826 79.008 66.2146 79.008C67.4466 79.008 68.4466 79.432 69.2146 80.28C69.9826 81.112 70.3666 82.232 70.3666 83.64C70.3666 85.048 69.9826 86.176 69.2146 87.024C68.4466 87.856 67.4466 88.272 66.2146 88.272ZM76.2226 79.2H79.0786L67.6066 96H64.7506L76.2226 79.2ZM66.2146 86.304C66.7586 86.304 67.1826 86.08 67.4866 85.632C67.8066 85.184 67.9666 84.52 67.9666 83.64C67.9666 82.76 67.8066 82.096 67.4866 81.648C67.1826 81.2 66.7586 80.976 66.2146 80.976C65.6866 80.976 65.2626 81.208 64.9426 81.672C64.6226 82.12 64.4626 82.776 64.4626 83.64C64.4626 84.504 64.6226 85.168 64.9426 85.632C65.2626 86.08 65.6866 86.304 66.2146 86.304ZM77.6146 96.192C76.8146 96.192 76.0946 96.008 75.4546 95.64C74.8306 95.256 74.3426 94.712 73.9906 94.008C73.6386 93.304 73.4626 92.488 73.4626 91.56C73.4626 90.632 73.6386 89.816 73.9906 89.112C74.3426 88.408 74.8306 87.872 75.4546 87.504C76.0946 87.12 76.8146 86.928 77.6146 86.928C78.8466 86.928 79.8466 87.352 80.6146 88.2C81.3986 89.032 81.7906 90.152 81.7906 91.56C81.7906 92.968 81.3986 94.096 80.6146 94.944C79.8466 95.776 78.8466 96.192 77.6146 96.192ZM77.6146 94.224C78.1586 94.224 78.5826 94 78.8866 93.552C79.2066 93.088 79.3666 92.424 79.3666 91.56C79.3666 90.696 79.2066 90.04 78.8866 89.592C78.5826 89.128 78.1586 88.896 77.6146 88.896C77.0866 88.896 76.6626 89.12 76.3426 89.568C76.0226 90.016 75.8626 90.68 75.8626 91.56C75.8626 92.44 76.0226 93.104 76.3426 93.552C76.6626 94 77.0866 94.224 77.6146 94.224Z" fill="#212B36"/>
</svg>
