<svg width="586" height="586" viewBox="0 0 586 586" fill="none" xmlns="http://www.w3.org/2000/svg">
<g clip-path="url(#clip0)">
<g opacity="0.2">
<circle r="19.1304" transform="matrix(-1 0 0 1 69 246)" fill="#161C24" stroke="#00D3E3" stroke-width="1.73913"/>
<mask id="path-2-inside-1" fill="white">
<rect width="5.21739" height="5.21739" rx="0.869565" transform="matrix(-1 0 0 1 74.6533 237.52)"/>
</mask>
<rect width="5.21739" height="5.21739" rx="0.869565" transform="matrix(-1 0 0 1 74.6533 237.52)" stroke="#A72C4A" stroke-width="2.17391" mask="url(#path-2-inside-1)"/>
<mask id="path-3-inside-2" fill="white">
<rect width="5.21739" height="5.21739" rx="0.869565" transform="matrix(-1 0 0 1 74.6533 243.607)"/>
</mask>
<rect width="5.21739" height="5.21739" rx="0.869565" transform="matrix(-1 0 0 1 74.6533 243.607)" fill="#1890FF" stroke="#A72C4A" stroke-width="2.17391" mask="url(#path-3-inside-2)"/>
<mask id="path-4-inside-3" fill="white">
<rect width="5.21739" height="5.21739" rx="0.869565" transform="matrix(-1 0 0 1 74.6533 249.694)"/>
</mask>
<rect width="5.21739" height="5.21739" rx="0.869565" transform="matrix(-1 0 0 1 74.6533 249.694)" stroke="#A72C4A" stroke-width="2.17391" mask="url(#path-4-inside-3)"/>
<rect width="5.21739" height="5.21739" rx="0.869565" transform="matrix(-1 0 0 1 68.5664 237.52)" fill="#54D62C"/>
<rect width="5.21739" height="5.21739" rx="0.869565" transform="matrix(-1 0 0 1 68.5664 243.607)" fill="#54D62C"/>
<rect width="5.21739" height="5.21739" rx="0.869565" transform="matrix(-1 0 0 1 68.5664 249.694)" fill="#54D62C"/>
<circle r="16.7391" transform="matrix(-1 0 0 1 282 223.5)" fill="#161C24" stroke="#00D3E3" stroke-width="1.52174"/>
<mask id="path-9-inside-4" fill="white">
<rect width="4.56522" height="4.56522" rx="0.76087" transform="matrix(-1 0 0 1 286.945 216.081)"/>
</mask>
<rect width="4.56522" height="4.56522" rx="0.76087" transform="matrix(-1 0 0 1 286.945 216.081)" stroke="#A72C4A" stroke-width="1.90217" mask="url(#path-9-inside-4)"/>
<mask id="path-10-inside-5" fill="white">
<rect width="4.56522" height="4.56522" rx="0.76087" transform="matrix(-1 0 0 1 286.945 221.407)"/>
</mask>
<rect width="4.56522" height="4.56522" rx="0.76087" transform="matrix(-1 0 0 1 286.945 221.407)" fill="#1890FF" stroke="#A72C4A" stroke-width="1.90217" mask="url(#path-10-inside-5)"/>
<mask id="path-11-inside-6" fill="white">
<rect width="4.56522" height="4.56522" rx="0.76087" transform="matrix(-1 0 0 1 286.945 226.734)"/>
</mask>
<rect width="4.56522" height="4.56522" rx="0.76087" transform="matrix(-1 0 0 1 286.945 226.734)" stroke="#A72C4A" stroke-width="1.90217" mask="url(#path-11-inside-6)"/>
<rect width="4.56522" height="4.56522" rx="0.76087" transform="matrix(-1 0 0 1 281.619 216.081)" fill="#54D62C"/>
<rect width="4.56522" height="4.56522" rx="0.76087" transform="matrix(-1 0 0 1 281.619 221.407)" fill="#54D62C"/>
<rect width="4.56522" height="4.56522" rx="0.76087" transform="matrix(-1 0 0 1 281.619 226.734)" fill="#54D62C"/>
<circle r="15.3043" transform="matrix(-1 0 0 1 280 385)" fill="#161C24" stroke="#00D3E3" stroke-width="1.3913"/>
<mask id="path-16-inside-7" fill="white">
<rect width="4.17391" height="4.17391" rx="0.695652" transform="matrix(-1 0 0 1 284.52 378.219)"/>
</mask>
<rect width="4.17391" height="4.17391" rx="0.695652" transform="matrix(-1 0 0 1 284.52 378.219)" stroke="#A72C4A" stroke-width="1.73913" mask="url(#path-16-inside-7)"/>
<mask id="path-17-inside-8" fill="white">
<rect width="4.17391" height="4.17391" rx="0.695652" transform="matrix(-1 0 0 1 284.52 383.088)"/>
</mask>
<rect width="4.17391" height="4.17391" rx="0.695652" transform="matrix(-1 0 0 1 284.52 383.088)" stroke="#A72C4A" stroke-width="1.73913" mask="url(#path-17-inside-8)"/>
<mask id="path-18-inside-9" fill="white">
<rect width="4.17391" height="4.17391" rx="0.695652" transform="matrix(-1 0 0 1 284.52 387.958)"/>
</mask>
<rect width="4.17391" height="4.17391" rx="0.695652" transform="matrix(-1 0 0 1 284.52 387.958)" stroke="#A72C4A" stroke-width="1.73913" mask="url(#path-18-inside-9)"/>
<rect width="4.17391" height="4.17391" rx="0.695652" transform="matrix(-1 0 0 1 279.65 378.219)" fill="#54D62C"/>
<rect width="4.17391" height="4.17391" rx="0.695652" transform="matrix(-1 0 0 1 279.65 383.088)" fill="#54D62C"/>
<rect width="4.17391" height="4.17391" rx="0.695652" transform="matrix(-1 0 0 1 279.65 387.958)" fill="#54D62C"/>
<circle r="22" transform="matrix(-1 0 0 1 396.156 122)" fill="#161C24" stroke="#00D3E3" stroke-width="2"/>
<rect width="6" height="6" rx="1" transform="matrix(-1 0 0 1 402.656 108.5)" fill="#54D62C"/>
<rect width="6" height="6" rx="1" transform="matrix(-1 0 0 1 402.656 115.5)" fill="#54D62C"/>
<rect width="6" height="6" rx="1" transform="matrix(-1 0 0 1 402.656 122.5)" fill="#1890FF"/>
<mask id="path-26-inside-10" fill="white">
<rect width="6" height="6" rx="1" transform="matrix(-1 0 0 1 402.656 129.5)"/>
</mask>
<rect width="6" height="6" rx="1" transform="matrix(-1 0 0 1 402.656 129.5)" stroke="#A72C4A" stroke-width="2.5" mask="url(#path-26-inside-10)"/>
<rect width="6" height="6" rx="1" transform="matrix(-1 0 0 1 395.656 108.5)" fill="#54D62C"/>
<rect width="6" height="6" rx="1" transform="matrix(-1 0 0 1 395.656 115.5)" fill="#54D62C"/>
<mask id="path-29-inside-11" fill="white">
<rect width="6" height="6" rx="1" transform="matrix(-1 0 0 1 395.656 122.5)"/>
</mask>
<rect width="6" height="6" rx="1" transform="matrix(-1 0 0 1 395.656 122.5)" stroke="#A72C4A" stroke-width="2.5" mask="url(#path-29-inside-11)"/>
<mask id="path-30-inside-12" fill="white">
<rect width="6" height="6" rx="1" transform="matrix(-1 0 0 1 395.656 129.5)"/>
</mask>
<rect width="6" height="6" rx="1" transform="matrix(-1 0 0 1 395.656 129.5)" stroke="#A72C4A" stroke-width="2.5" mask="url(#path-30-inside-12)"/>
<circle r="25.3478" transform="matrix(-1 0 0 1 0.5 433.5)" fill="#161C24" stroke="#00D3E3" stroke-width="2.30435"/>
<rect width="6.91304" height="6.91304" rx="1.15217" transform="matrix(-1 0 0 1 7.98901 417.946)" fill="#54D62C"/>
<rect width="6.91304" height="6.91304" rx="1.15217" transform="matrix(-1 0 0 1 7.98901 426.011)" fill="#54D62C"/>
<rect width="6.91304" height="6.91304" rx="1.15217" transform="matrix(-1 0 0 1 7.98901 434.076)" fill="#1890FF"/>
<mask id="path-35-inside-13" fill="white">
<rect width="6.91304" height="6.91304" rx="1.15217" transform="matrix(-1 0 0 1 7.98901 442.141)"/>
</mask>
<rect width="6.91304" height="6.91304" rx="1.15217" transform="matrix(-1 0 0 1 7.98901 442.141)" stroke="#A72C4A" stroke-width="2.88043" mask="url(#path-35-inside-13)"/>
<circle cx="531" cy="275" r="15.3043" fill="#161C24" stroke="#00D3E3" stroke-width="1.3913"/>
<rect x="526.478" y="265.606" width="4.17391" height="4.17391" rx="0.695652" fill="#54D62C"/>
<rect x="526.478" y="270.476" width="4.17391" height="4.17391" rx="0.695652" fill="#54D62C"/>
<rect x="526.478" y="275.346" width="4.17391" height="4.17391" rx="0.695652" fill="#1890FF"/>
<mask id="path-40-inside-14" fill="white">
<rect x="526.478" y="280.217" width="4.17391" height="4.17391" rx="0.695652"/>
</mask>
<rect x="526.478" y="280.217" width="4.17391" height="4.17391" rx="0.695652" stroke="#A72C4A" stroke-width="1.73913" mask="url(#path-40-inside-14)"/>
<rect x="531.348" y="265.606" width="4.17391" height="4.17391" rx="0.695652" fill="#54D62C"/>
<rect x="531.348" y="270.476" width="4.17391" height="4.17391" rx="0.695652" fill="#54D62C"/>
<mask id="path-43-inside-15" fill="white">
<rect x="531.348" y="275.346" width="4.17391" height="4.17391" rx="0.695652"/>
</mask>
<rect x="531.348" y="275.346" width="4.17391" height="4.17391" rx="0.695652" stroke="#A72C4A" stroke-width="1.73913" mask="url(#path-43-inside-15)"/>
<mask id="path-44-inside-16" fill="white">
<rect x="531.348" y="280.217" width="4.17391" height="4.17391" rx="0.695652"/>
</mask>
<rect x="531.348" y="280.217" width="4.17391" height="4.17391" rx="0.695652" stroke="#A72C4A" stroke-width="1.73913" mask="url(#path-44-inside-16)"/>
<circle r="19.1304" transform="matrix(-1 0 0 1 445.5 419)" fill="#161C24" stroke="#00D3E3" stroke-width="1.73913"/>
<rect width="5.21739" height="5.21739" rx="0.869565" transform="matrix(-1 0 0 1 451.152 407.261)" fill="#54D62C"/>
<rect width="5.21739" height="5.21739" rx="0.869565" transform="matrix(-1 0 0 1 451.152 413.348)" fill="#54D62C"/>
<rect width="5.21739" height="5.21739" rx="0.869565" transform="matrix(-1 0 0 1 451.152 419.435)" fill="#1890FF"/>
<mask id="path-49-inside-17" fill="white">
<rect width="5.21739" height="5.21739" rx="0.869565" transform="matrix(-1 0 0 1 451.152 425.522)"/>
</mask>
<rect width="5.21739" height="5.21739" rx="0.869565" transform="matrix(-1 0 0 1 451.152 425.522)" stroke="#A72C4A" stroke-width="2.17391" mask="url(#path-49-inside-17)"/>
<rect width="5.21739" height="5.21739" rx="0.869565" transform="matrix(-1 0 0 1 445.065 407.261)" fill="#54D62C"/>
<rect width="5.21739" height="5.21739" rx="0.869565" transform="matrix(-1 0 0 1 445.065 413.348)" fill="#54D62C"/>
<mask id="path-52-inside-18" fill="white">
<rect width="5.21739" height="5.21739" rx="0.869565" transform="matrix(-1 0 0 1 445.065 419.435)"/>
</mask>
<rect width="5.21739" height="5.21739" rx="0.869565" transform="matrix(-1 0 0 1 445.065 419.435)" stroke="#A72C4A" stroke-width="2.17391" mask="url(#path-52-inside-18)"/>
<mask id="path-53-inside-19" fill="white">
<rect width="5.21739" height="5.21739" rx="0.869565" transform="matrix(-1 0 0 1 445.065 425.522)"/>
</mask>
<rect width="5.21739" height="5.21739" rx="0.869565" transform="matrix(-1 0 0 1 445.065 425.522)" stroke="#A72C4A" stroke-width="2.17391" mask="url(#path-53-inside-19)"/>
<circle cx="439.759" cy="336.759" r="12.2039" fill="#161C24" stroke="#00D3E3" stroke-width="1.10944"/>
<mask id="path-55-inside-20" fill="white">
<rect x="436.152" y="333.293" width="3.32833" height="3.32833" rx="0.554721"/>
</mask>
<rect x="436.152" y="333.293" width="3.32833" height="3.32833" rx="0.554721" stroke="#A72C4A" stroke-width="1.3868" mask="url(#path-55-inside-20)"/>
<mask id="path-56-inside-21" fill="white">
<rect x="436.152" y="337.176" width="3.32833" height="3.32833" rx="0.554721"/>
</mask>
<rect x="436.152" y="337.176" width="3.32833" height="3.32833" rx="0.554721" stroke="#A72C4A" stroke-width="1.3868" mask="url(#path-56-inside-21)"/>
<rect x="440.035" y="333.293" width="3.32833" height="3.32833" rx="0.554721" fill="#54D62C"/>
<rect x="440.035" y="337.176" width="3.32833" height="3.32833" rx="0.554721" fill="#54D62C"/>
<circle r="8.37778" transform="matrix(-1 0 0 1 473.757 185.759)" fill="#161C24" stroke="#00D3E3" stroke-width="0.761616"/>
<mask id="path-60-inside-22" fill="white">
<rect width="2.28485" height="2.28485" rx="0.380808" transform="matrix(-1 0 0 1 476.232 183.381)"/>
</mask>
<rect width="2.28485" height="2.28485" rx="0.380808" transform="matrix(-1 0 0 1 476.232 183.381)" stroke="#A72C4A" stroke-width="0.952021" mask="url(#path-60-inside-22)"/>
<mask id="path-61-inside-23" fill="white">
<rect width="2.28485" height="2.28485" rx="0.380808" transform="matrix(-1 0 0 1 476.232 186.044)"/>
</mask>
<rect width="2.28485" height="2.28485" rx="0.380808" transform="matrix(-1 0 0 1 476.232 186.044)" stroke="#A72C4A" stroke-width="0.952021" mask="url(#path-61-inside-23)"/>
<rect width="2.28485" height="2.28485" rx="0.380808" transform="matrix(-1 0 0 1 473.569 183.381)" fill="#54D62C"/>
<rect width="2.28485" height="2.28485" rx="0.380808" transform="matrix(-1 0 0 1 473.568 186.047)" fill="#54D62C"/>
<circle cx="514.759" cy="92.7586" r="12.2039" fill="#161C24" stroke="#00D3E3" stroke-width="1.10944"/>
<mask id="path-65-inside-24" fill="white">
<rect x="511.152" y="89.293" width="3.32833" height="3.32833" rx="0.554721"/>
</mask>
<rect x="511.152" y="89.293" width="3.32833" height="3.32833" rx="0.554721" stroke="#A72C4A" stroke-width="1.3868" mask="url(#path-65-inside-24)"/>
<mask id="path-66-inside-25" fill="white">
<rect x="511.152" y="93.176" width="3.32833" height="3.32833" rx="0.554721"/>
</mask>
<rect x="511.152" y="93.176" width="3.32833" height="3.32833" rx="0.554721" stroke="#A72C4A" stroke-width="1.3868" mask="url(#path-66-inside-25)"/>
<rect x="515.035" y="89.293" width="3.32833" height="3.32833" rx="0.554721" fill="#54D62C"/>
<rect x="515.035" y="93.176" width="3.32833" height="3.32833" rx="0.554721" fill="#54D62C"/>
<circle cx="135.932" cy="129.932" r="18.109" fill="#161C24" stroke="#00D3E3" stroke-width="1.64627"/>
<rect x="130.582" y="124.789" width="4.93881" height="4.93881" rx="0.823136" fill="#54D62C"/>
<mask id="path-71-inside-26" fill="white">
<rect x="130.582" y="130.551" width="4.93881" height="4.93881" rx="0.823136"/>
</mask>
<rect x="130.582" y="130.551" width="4.93881" height="4.93881" rx="0.823136" stroke="#A72C4A" stroke-width="2.05784" mask="url(#path-71-inside-26)"/>
<rect x="136.344" y="124.789" width="4.93881" height="4.93881" rx="0.823136" fill="#1890FF"/>
<rect x="136.344" y="130.551" width="4.93881" height="4.93881" rx="0.823136" fill="#54D62C"/>
<circle cx="333.934" cy="309" r="14.3478" fill="#161C24" stroke="#00D3E3" stroke-width="1.30435"/>
<rect x="329.695" y="304.926" width="3.91304" height="3.91304" rx="0.652174" fill="#54D62C"/>
<mask id="path-76-inside-27" fill="white">
<rect x="329.695" y="309.491" width="3.91304" height="3.91304" rx="0.652174"/>
</mask>
<rect x="329.695" y="309.491" width="3.91304" height="3.91304" rx="0.652174" stroke="#A72C4A" stroke-width="1.63043" mask="url(#path-76-inside-27)"/>
<rect x="334.26" y="304.926" width="3.91304" height="3.91304" rx="0.652174" fill="#1890FF"/>
<rect x="334.26" y="309.491" width="3.91304" height="3.91304" rx="0.652174" fill="#54D62C"/>
<path d="M162.5 56.5L141.5 112.5" stroke="#00D3E3" stroke-width="0.7"/>
<path d="M88.5 142L117.5 131.5" stroke="#00D3E3" stroke-width="0.7"/>
<path d="M77 228L125.5 145" stroke="#00D3E3" stroke-width="0.7"/>
<path d="M88.5 245L265 227" stroke="#00D3E3" stroke-width="0.7"/>
<path d="M233 286L271.5 237.5" stroke="#00D3E3" stroke-width="0.7"/>
<path d="M63.5 227.5L55.5 188.5" stroke="#00D3E3" stroke-width="0.7"/>
<path d="M49.5 243L-76.5 210" stroke="#00D3E3" stroke-width="0.7"/>
<path d="M56.5 261L-26 325" stroke="#00D3E3" stroke-width="0.7"/>
<path d="M8.09375 333H-24" stroke="#00D3E3" stroke-width="0.7"/>
<path d="M11.5 457L47 512" stroke="#00D3E3" stroke-width="0.7"/>
<path d="M26 434.5L111.5 428.5" stroke="#00D3E3" stroke-width="0.7"/>
<path d="M74 265L127.5 401.5" stroke="#00D3E3" stroke-width="0.7"/>
<path d="M266.5 216.5L151.5 139" stroke="#00D3E3" stroke-width="0.7"/>
<path d="M283.5 206.498L289 151.398" stroke="#00D3E3" stroke-width="0.7"/>
<path d="M323.3 122.5L373.5 124.5" stroke="#00D3E3" stroke-width="0.7"/>
<path d="M297 215L384 140.5" stroke="#00D3E3" stroke-width="0.7"/>
<path d="M291 238L326 296.5" stroke="#00D3E3" stroke-width="0.7"/>
<path d="M380 275L346 301" stroke="#00D3E3" stroke-width="0.7"/>
<path d="M355.5 354.5L340 322.5" stroke="#00D3E3" stroke-width="0.7"/>
<path d="M290 372.5L326.5 322" stroke="#00D3E3" stroke-width="0.7"/>
<path d="M268.5 374L233.5 341" stroke="#00D3E3" stroke-width="0.7"/>
<path d="M264.998 390.5L158.797 419.5" stroke="#00D3E3" stroke-width="0.7"/>
<path d="M279 400.5L275 445.1" stroke="#00D3E3" stroke-width="0.7"/>
<path d="M292.5 394.5L419.5 488.5" stroke="#00D3E3" stroke-width="0.7"/>
<path d="M445.5 438.5V471" stroke="#00D3E3" stroke-width="0.7"/>
<path d="M465.5 418.5L505 401.5" stroke="#00D3E3" stroke-width="0.7"/>
<path d="M426.5 414.5L390.5 391.5" stroke="#00D3E3" stroke-width="0.7"/>
<path d="M444 399.5L441.5 349" stroke="#00D3E3" stroke-width="0.7"/>
<path d="M389.5 365L429 343" stroke="#00D3E3" stroke-width="0.7"/>
<path d="M429.5 290L437 324.5" stroke="#00D3E3" stroke-width="0.7"/>
<path d="M505.5 357L452.5 337" stroke="#00D3E3" stroke-width="0.7"/>
<path d="M418 115.5L502.5 96.5" stroke="#00D3E3" stroke-width="0.7"/>
<path d="M551.5 155.5L521 103.5" stroke="#00D3E3" stroke-width="0.7"/>
<path d="M375 115L200.5 36.5" stroke="#00D3E3" stroke-width="0.7"/>
<path d="M418 127.5L535 173.5" stroke="#00D3E3" stroke-width="0.7"/>
<path d="M403 143.5L416 196" stroke="#00D3E3" stroke-width="0.7"/>
<path d="M412.5 137L467.5 180" stroke="#00D3E3" stroke-width="0.7"/>
<path d="M534.5 182L482 186" stroke="#00D3E3" stroke-width="0.7"/>
<path d="M510 104.5L477.5 178" stroke="#00D3E3" stroke-width="0.7"/>
<path d="M452.5 211.5L469 192.5" stroke="#00D3E3" stroke-width="0.7"/>
<path d="M522 262.5L478.5 193" stroke="#00D3E3" stroke-width="0.7"/>
<path d="M519 284.5L450 330" stroke="#00D3E3" stroke-width="0.7"/>
<path d="M519 284.5L450 330" stroke="#00D3E3" stroke-width="0.7"/>
<path d="M515.5 272.5L462 258.5" stroke="#00D3E3" stroke-width="0.7"/>
</g>
<g opacity="0.6">
<path d="M77 126.5L151 48.5" stroke="#00D3E3" stroke-width="0.7"/>
<path d="M89 163L175 188" stroke="#00D3E3" stroke-width="0.7"/>
<path d="M20.5 153H3" stroke="#00D3E3" stroke-width="0.7"/>
<path d="M216 199L370.5 234.5" stroke="#00D3E3" stroke-width="0.7"/>
<path d="M244 310L374 261" stroke="#00D3E3" stroke-width="0.7"/>
<path d="M373 353.5L401 289" stroke="#00D3E3" stroke-width="0.7"/>
<path d="M78.5 180L178.5 289.5" stroke="#00D3E3" stroke-width="0.7"/>
<path d="M193.5 172L175.5 57.5" stroke="#00D3E3" stroke-width="0.7"/>
<path d="M204 277.5L198 213.5" stroke="#00D3E3" stroke-width="0.7"/>
<path d="M58.5 312L180 207" stroke="#00D3E3" stroke-width="0.7"/>
<path d="M66 331.5L171 321.5" stroke="#00D3E3" stroke-width="0.7"/>
<path d="M57 351.5L116.5 410" stroke="#00D3E3" stroke-width="0.7"/>
<path d="M41 359.5L66.5 504" stroke="#00D3E3" stroke-width="0.7"/>
<path d="M123.5 444.5L89.5 508" stroke="#00D3E3" stroke-width="0.7"/>
<path d="M156.5 435L247.5 465" stroke="#00D3E3" stroke-width="0.7"/>
<path d="M300 479.5L417 499.5" stroke="#00D3E3" stroke-width="0.7"/>
<path d="M248.5 482.5L111 536.5" stroke="#00D3E3" stroke-width="0.7"/>
<path d="M-105.5 457L31.5 536" stroke="#00D3E3" stroke-width="0.7"/>
<path d="M15.5 349L-93.5 413" stroke="#00D3E3" stroke-width="0.7"/>
<path d="M13.5 316L-85.5 242.5" stroke="#00D3E3" stroke-width="0.7"/>
<path d="M188 346L147 404" stroke="#00D3E3" stroke-width="0.7"/>
<path d="M218 348.5L260.5 449.5" stroke="#00D3E3" stroke-width="0.7"/>
<path d="M241 329L341 372.5" stroke="#00D3E3" stroke-width="0.7"/>
<path d="M393.5 379H499" stroke="#00D3E3" stroke-width="0.7"/>
<path d="M382.5 401.5L430.5 476" stroke="#00D3E3" stroke-width="0.7"/>
<path d="M517 412L467 482.5" stroke="#00D3E3" stroke-width="0.7"/>
<path d="M294.5 456L351.5 402" stroke="#00D3E3" stroke-width="0.7"/>
<path d="M213 180L267.5 138" stroke="#00D3E3" stroke-width="0.7"/>
<path d="M383 210.5L312.5 142.5" stroke="#00D3E3" stroke-width="0.7"/>
<path d="M516 347.5L450 277" stroke="#00D3E3" stroke-width="0.7"/>
<path d="M459.5 229L536.5 189" stroke="#00D3E3" stroke-width="0.7"/>
<path d="M263 106L192 49.5" stroke="#00D3E3" stroke-width="0.7"/>
<path d="M-77 348.5L6.5 189" stroke="#00D3E3" stroke-width="0.7"/>
<path d="M-77.5 128L145 37.5" stroke="#00D3E3" stroke-width="0.7"/>
<circle r="36.4712" transform="matrix(-1 0 0 1 206.953 313.422)" stroke="#00D3E3" stroke-width="3.31557"/>
<mask id="path-158-inside-28" fill="white">
<rect width="9.9467" height="9.9467" rx="1.65778" transform="matrix(-1 0 0 1 217.727 297.258)"/>
</mask>
<rect width="9.9467" height="9.9467" rx="1.65778" transform="matrix(-1 0 0 1 217.727 297.258)" fill="#1890FF" stroke="#A72C4A" stroke-width="4.14446" mask="url(#path-158-inside-28)"/>
<rect width="9.9467" height="9.9467" rx="1.65778" transform="matrix(-1 0 0 1 217.727 308.863)" fill="#54D62C"/>
<mask id="path-160-inside-29" fill="white">
<rect width="9.9467" height="9.9467" rx="1.65778" transform="matrix(-1 0 0 1 217.727 320.467)"/>
</mask>
<rect width="9.9467" height="9.9467" rx="1.65778" transform="matrix(-1 0 0 1 217.727 320.467)" stroke="#A72C4A" stroke-width="4.14446" mask="url(#path-160-inside-29)"/>
<rect width="9.9467" height="9.9467" rx="1.65778" transform="matrix(-1 0 0 1 206.122 297.258)" fill="#54D62C"/>
<rect width="9.9467" height="9.9467" rx="1.65778" transform="matrix(-1 0 0 1 206.122 308.863)" fill="#54D62C"/>
<rect width="9.9467" height="9.9467" rx="1.65778" transform="matrix(-1 0 0 1 206.122 320.467)" fill="#1890FF"/>
<circle r="30.6221" transform="matrix(-1 0 0 1 291.459 119.523)" stroke="#00D3E3" stroke-width="2.78383"/>
<rect x="282.41" y="105.95" width="8.35149" height="8.35149" rx="1.39192" fill="#54D62C"/>
<rect x="282.41" y="115.694" width="8.35149" height="8.35149" rx="1.39192" fill="#54D62C"/>
<rect x="282.41" y="125.437" width="8.35149" height="8.35149" rx="1.39192" fill="#54D62C"/>
<rect x="292.154" y="105.95" width="8.35149" height="8.35149" rx="1.39192" fill="#1890FF"/>
<mask id="path-169-inside-30" fill="white">
<rect x="292.154" y="115.694" width="8.35149" height="8.35149" rx="1.39192"/>
</mask>
<rect x="292.154" y="115.694" width="8.35149" height="8.35149" rx="1.39192" stroke="#A72C4A" stroke-width="3.47979" mask="url(#path-169-inside-30)"/>
<rect x="292.154" y="125.437" width="8.35149" height="8.35149" rx="1.39192" fill="#1890FF"/>
<circle r="37.7961" transform="matrix(-1 0 0 1 537.513 379.515)" stroke="#00D3E3" stroke-width="3.43601"/>
<rect x="526.346" y="362.763" width="10.308" height="10.308" rx="1.718" fill="#54D62C"/>
<rect x="526.346" y="374.79" width="10.308" height="10.308" rx="1.718" fill="#54D62C"/>
<rect x="526.346" y="386.814" width="10.308" height="10.308" rx="1.718" fill="#54D62C"/>
<rect x="538.37" y="362.763" width="10.308" height="10.308" rx="1.718" fill="#1890FF"/>
<mask id="path-176-inside-31" fill="white">
<rect x="538.37" y="374.79" width="10.308" height="10.308" rx="1.718"/>
</mask>
<rect x="538.37" y="374.79" width="10.308" height="10.308" rx="1.718" stroke="#A72C4A" stroke-width="4.29501" mask="url(#path-176-inside-31)"/>
<rect x="538.37" y="386.814" width="10.308" height="10.308" rx="1.718" fill="#1890FF"/>
<circle r="26.3178" transform="matrix(-1 0 0 1 367.017 379.514)" stroke="#00D3E3" stroke-width="2.39253"/>
<rect x="359.242" y="367.852" width="7.17758" height="7.17758" rx="1.19626" fill="#54D62C"/>
<rect x="359.242" y="376.225" width="7.17758" height="7.17758" rx="1.19626" fill="#54D62C"/>
<rect x="359.242" y="384.599" width="7.17758" height="7.17758" rx="1.19626" fill="#54D62C"/>
<rect x="367.616" y="367.852" width="7.17758" height="7.17758" rx="1.19626" fill="#1890FF"/>
<rect x="367.616" y="376.225" width="7.17758" height="7.17758" rx="1.19626" fill="#54D62C"/>
<rect x="367.616" y="384.599" width="7.17758" height="7.17758" rx="1.19626" fill="#1890FF"/>
<circle cx="55.0293" cy="153.529" r="33.9846" stroke="#00D3E3" stroke-width="3.08951"/>
<mask id="path-186-inside-32" fill="white">
<rect x="44.9893" y="138.467" width="9.26852" height="9.26852" rx="1.54475"/>
</mask>
<rect x="44.9893" y="138.467" width="9.26852" height="9.26852" rx="1.54475" stroke="#A72C4A" stroke-width="3.86188" mask="url(#path-186-inside-32)"/>
<rect x="44.9893" y="149.28" width="9.26852" height="9.26852" rx="1.54475" fill="#54D62C"/>
<mask id="path-188-inside-33" fill="white">
<rect x="44.9893" y="160.093" width="9.26852" height="9.26852" rx="1.54475"/>
</mask>
<rect x="44.9893" y="160.093" width="9.26852" height="9.26852" rx="1.54475" fill="#1890FF" stroke="#A72C4A" stroke-width="3.86188" mask="url(#path-188-inside-33)"/>
<rect x="55.8025" y="138.467" width="9.26852" height="9.26852" rx="1.54475" fill="#1890FF"/>
<rect x="55.8025" y="149.28" width="9.26852" height="9.26852" rx="1.54475" fill="#54D62C"/>
<rect x="55.8025" y="160.093" width="9.26852" height="9.26852" rx="1.54475" fill="#1890FF"/>
<circle r="39.4894" transform="matrix(1 0 0 -1 71.2844 544.282)" stroke="#00D3E3" stroke-width="3.58995"/>
<rect width="10.7698" height="10.7698" rx="1.79497" transform="matrix(1 0 0 -1 59.6172 568.516)" fill="#54D62C"/>
<rect width="10.7698" height="10.7698" rx="1.79497" transform="matrix(1 0 0 -1 59.6172 555.951)" fill="#1890FF"/>
<mask id="path-195-inside-34" fill="white">
<rect width="10.7698" height="10.7698" rx="1.79497" transform="matrix(1 0 0 -1 59.6172 543.386)"/>
</mask>
<rect width="10.7698" height="10.7698" rx="1.79497" transform="matrix(1 0 0 -1 59.6172 543.386)" fill="#1890FF" stroke="#A72C4A" stroke-width="4.48744" mask="url(#path-195-inside-34)"/>
<mask id="path-196-inside-35" fill="white">
<rect width="10.7698" height="10.7698" rx="1.79497" transform="matrix(1 0 0 -1 59.6172 530.821)"/>
</mask>
<rect width="10.7698" height="10.7698" rx="1.79497" transform="matrix(1 0 0 -1 59.6172 530.821)" stroke="#A72C4A" stroke-width="4.48744" mask="url(#path-196-inside-35)"/>
<rect width="10.7698" height="10.7698" rx="1.79497" transform="matrix(1 0 0 -1 72.1821 568.516)" fill="#54D62C"/>
<rect width="10.7698" height="10.7698" rx="1.79497" transform="matrix(1 0 0 -1 72.1821 555.951)" fill="#54D62C"/>
<mask id="path-199-inside-36" fill="white">
<rect width="10.7698" height="10.7698" rx="1.79497" transform="matrix(1 0 0 -1 72.1821 543.386)"/>
</mask>
<rect width="10.7698" height="10.7698" rx="1.79497" transform="matrix(1 0 0 -1 72.1821 543.386)" stroke="#A72C4A" stroke-width="4.48744" mask="url(#path-199-inside-36)"/>
<mask id="path-200-inside-37" fill="white">
<rect width="10.7698" height="10.7698" rx="1.79497" transform="matrix(1 0 0 -1 72.1821 530.821)"/>
</mask>
<rect width="10.7698" height="10.7698" rx="1.79497" transform="matrix(1 0 0 -1 72.1821 530.821)" stroke="#A72C4A" stroke-width="4.48744" mask="url(#path-200-inside-37)"/>
<circle cx="273.641" cy="472.641" r="26.4391" stroke="#00D3E3" stroke-width="2.40356"/>
<mask id="path-202-inside-38" fill="white">
<rect x="265.828" y="465.13" width="7.21067" height="7.21067" rx="1.20178"/>
</mask>
<rect x="265.828" y="465.13" width="7.21067" height="7.21067" rx="1.20178" stroke="#A72C4A" stroke-width="3.00445" mask="url(#path-202-inside-38)"/>
<mask id="path-203-inside-39" fill="white">
<rect x="265.828" y="473.542" width="7.21067" height="7.21067" rx="1.20178"/>
</mask>
<rect x="265.828" y="473.542" width="7.21067" height="7.21067" rx="1.20178" stroke="#A72C4A" stroke-width="3.00445" mask="url(#path-203-inside-39)"/>
<rect x="274.24" y="465.13" width="7.21067" height="7.21067" rx="1.20178" fill="#54D62C"/>
<rect x="274.24" y="473.542" width="7.21067" height="7.21067" rx="1.20178" fill="#54D62C"/>
<circle cx="195.641" cy="192.641" r="20.7" stroke="#00D3E3" stroke-width="1.88182"/>
<mask id="path-207-inside-40" fill="white">
<rect x="189.523" y="186.762" width="5.64546" height="5.64546" rx="0.940909"/>
</mask>
<rect x="189.523" y="186.762" width="5.64546" height="5.64546" rx="0.940909" stroke="#A72C4A" stroke-width="2.35227" mask="url(#path-207-inside-40)"/>
<mask id="path-208-inside-41" fill="white">
<rect x="189.523" y="193.348" width="5.64546" height="5.64546" rx="0.940909"/>
</mask>
<rect x="189.523" y="193.348" width="5.64546" height="5.64546" rx="0.940909" stroke="#A72C4A" stroke-width="2.35227" mask="url(#path-208-inside-41)"/>
<rect x="196.11" y="186.762" width="5.64546" height="5.64546" rx="0.940909" fill="#54D62C"/>
<rect x="196.11" y="193.348" width="5.64546" height="5.64546" rx="0.940909" fill="#54D62C"/>
<circle cx="172.304" cy="29.3703" r="27.8879" stroke="#00D3E3" stroke-width="2.53526"/>
<rect x="164.062" y="21.4492" width="7.60578" height="7.60578" rx="1.26763" fill="#1890FF"/>
<rect x="164.062" y="30.3226" width="7.60578" height="7.60578" rx="1.26763" fill="#1890FF"/>
<rect x="172.936" y="21.4492" width="7.60578" height="7.60578" rx="1.26763" fill="#1890FF"/>
<rect x="172.936" y="30.3226" width="7.60578" height="7.60578" rx="1.26763" fill="#1890FF"/>
<circle cx="135.155" cy="424.155" r="23.1052" stroke="#00D3E3" stroke-width="2.10048"/>
<rect x="128.328" y="417.59" width="6.30143" height="6.30143" rx="1.05024" fill="#54D62C"/>
<rect x="128.328" y="424.942" width="6.30143" height="6.30143" rx="1.05024" fill="#1890FF"/>
<rect x="135.68" y="417.59" width="6.30143" height="6.30143" rx="1.05024" fill="#1890FF"/>
<mask id="path-220-inside-42" fill="white">
<rect x="135.68" y="424.942" width="6.30143" height="6.30143" rx="1.05024"/>
</mask>
<rect x="135.68" y="424.942" width="6.30143" height="6.30143" rx="1.05024" stroke="#A72C4A" stroke-width="2.6256" mask="url(#path-220-inside-42)"/>
<circle cx="37.1555" cy="331.157" r="27.8879" stroke="#00D3E3" stroke-width="2.53526"/>
<mask id="path-222-inside-43" fill="white">
<rect x="28.918" y="323.236" width="7.60578" height="7.60578" rx="1.26763"/>
</mask>
<rect x="28.918" y="323.236" width="7.60578" height="7.60578" rx="1.26763" fill="#1890FF" stroke="#A72C4A" stroke-width="3.16907" mask="url(#path-222-inside-43)"/>
<rect x="28.918" y="332.109" width="7.60578" height="7.60578" rx="1.26763" fill="#1890FF"/>
<rect x="37.7913" y="323.236" width="7.60578" height="7.60578" rx="1.26763" fill="#1890FF"/>
<rect x="37.7913" y="332.109" width="7.60578" height="7.60578" rx="1.26763" fill="#1890FF"/>
<circle cx="560" cy="180.001" r="24.8696" stroke="#00D3E3" stroke-width="2.26087"/>
<mask id="path-227-inside-44" fill="white">
<rect x="552.654" y="172.937" width="6.78261" height="6.78261" rx="1.13043"/>
</mask>
<rect x="552.654" y="172.937" width="6.78261" height="6.78261" rx="1.13043" fill="#1890FF" stroke="#A72C4A" stroke-width="2.82609" mask="url(#path-227-inside-44)"/>
<rect x="552.654" y="180.85" width="6.78261" height="6.78261" rx="1.13043" fill="#1890FF"/>
<rect x="560.567" y="172.937" width="6.78261" height="6.78261" rx="1.13043" fill="#1890FF"/>
<rect x="560.567" y="180.85" width="6.78261" height="6.78261" rx="1.13043" fill="#1890FF"/>
<circle r="46.2544" transform="matrix(-1 0 0 1 416.467 243.58)" stroke="#00D3E3" stroke-width="4.20494"/>
<rect width="12.6148" height="12.6148" rx="2.10247" transform="matrix(-1 0 0 1 430.133 215.195)" fill="#54D62C"/>
<rect width="12.6148" height="12.6148" rx="2.10247" transform="matrix(-1 0 0 1 430.133 229.913)" fill="#54D62C"/>
<rect width="12.6148" height="12.6148" rx="2.10247" transform="matrix(-1 0 0 1 430.133 244.63)" fill="#1890FF"/>
<mask id="path-235-inside-45" fill="white">
<rect width="12.6148" height="12.6148" rx="2.10247" transform="matrix(-1 0 0 1 430.133 259.347)"/>
</mask>
<rect width="12.6148" height="12.6148" rx="2.10247" transform="matrix(-1 0 0 1 430.133 259.347)" stroke="#A72C4A" stroke-width="5.25618" mask="url(#path-235-inside-45)"/>
<rect width="12.6148" height="12.6148" rx="2.10247" transform="matrix(-1 0 0 1 415.416 215.195)" fill="#54D62C"/>
<rect width="12.6148" height="12.6148" rx="2.10247" transform="matrix(-1 0 0 1 415.416 229.913)" fill="#54D62C"/>
<mask id="path-238-inside-46" fill="white">
<rect width="12.6148" height="12.6148" rx="2.10247" transform="matrix(-1 0 0 1 415.416 244.63)"/>
</mask>
<rect width="12.6148" height="12.6148" rx="2.10247" transform="matrix(-1 0 0 1 415.416 244.63)" fill="#1890FF" stroke="#A72C4A" stroke-width="5.25618" mask="url(#path-238-inside-46)"/>
<rect width="12.6148" height="12.6148" rx="2.10247" transform="matrix(-1 0 0 1 415.416 259.347)" fill="#54D62C"/>
<circle r="27.8878" transform="matrix(-1 0 0 1 445.157 500.155)" stroke="#00D3E3" stroke-width="2.53526"/>
<rect width="7.60578" height="7.60578" rx="1.26763" transform="matrix(-1 0 0 1 453.398 483.042)" fill="#54D62C"/>
<rect width="7.60578" height="7.60578" rx="1.26763" transform="matrix(-1 0 0 1 453.398 491.916)" fill="#54D62C"/>
<rect width="7.60578" height="7.60578" rx="1.26763" transform="matrix(-1 0 0 1 453.398 500.789)" fill="#1890FF"/>
<rect width="7.60578" height="7.60578" rx="1.26763" transform="matrix(-1 0 0 1 453.398 509.663)" fill="#1890FF"/>
<rect width="7.60578" height="7.60578" rx="1.26763" transform="matrix(-1 0 0 1 444.525 483.042)" fill="#54D62C"/>
<rect width="7.60578" height="7.60578" rx="1.26763" transform="matrix(-1 0 0 1 444.525 491.916)" fill="#54D62C"/>
<mask id="path-247-inside-47" fill="white">
<rect width="7.60578" height="7.60578" rx="1.26763" transform="matrix(-1 0 0 1 444.525 500.789)"/>
</mask>
<rect width="7.60578" height="7.60578" rx="1.26763" transform="matrix(-1 0 0 1 444.525 500.789)" stroke="#A72C4A" stroke-width="3.16907" mask="url(#path-247-inside-47)"/>
<mask id="path-248-inside-48" fill="white">
<rect width="7.60578" height="7.60578" rx="1.26763" transform="matrix(-1 0 0 1 444.525 509.663)"/>
</mask>
<rect width="7.60578" height="7.60578" rx="1.26763" transform="matrix(-1 0 0 1 444.525 509.663)" fill="#1890FF" stroke="#A72C4A" stroke-width="3.16907" mask="url(#path-248-inside-48)"/>
</g>
<path opacity="0.8" d="M-898 -8H545V736H-898V-8Z" fill="url(#paint0_linear)"/>
</g>
<defs>
<linearGradient id="paint0_linear" x1="-612.5" y1="372.5" x2="579.5" y2="315" gradientUnits="userSpaceOnUse">
<stop offset="0.530649" stop-color="#161C24" stop-opacity="0.74"/>
<stop offset="0.779242" stop-color="#161C24" stop-opacity="0"/>
</linearGradient>
<clipPath id="clip0">
<rect width="586" height="586" fill="white"/>
</clipPath>
</defs>
</svg>
